<svg width="2168" height="2208" viewBox="0 0 2168 2208" fill="none" xmlns="http://www.w3.org/2000/svg">
<rect y="1218.3" width="478.673" height="478.673" fill="black"/>
<rect y="526" width="478.673" height="478.673" fill="white"/>
<rect x="851.051" y="857.777" width="119.668" height="119.668" fill="white"/>
<rect x="1090.39" y="857.777" width="119.668" height="119.668" fill="white"/>
<rect x="970.719" y="977.445" width="119.668" height="119.668" fill="white"/>
<rect x="851.051" y="1097.11" width="119.668" height="119.668" fill="white"/>
<rect x="1210.06" y="1216.78" width="119.668" height="119.668" fill="white"/>
<rect x="1210.06" y="977.445" width="119.668" height="119.668" fill="white"/>
<rect x="970.719" y="857.777" width="119.668" height="119.668" fill="black"/>
<rect x="1090.39" y="977.445" width="119.668" height="119.668" fill="black"/>
<rect x="1210.06" y="857.777" width="119.668" height="119.668" fill="black"/>
<rect x="851.051" y="977.445" width="119.668" height="119.668" fill="black"/>
<rect x="1090.39" y="1097.11" width="119.668" height="119.668" fill="white"/>
<rect x="1210.06" y="1097.11" width="119.668" height="119.668" fill="black"/>
<rect x="970.719" y="1097.11" width="119.668" height="119.668" fill="black"/>
<rect x="970.719" y="1216.78" width="119.668" height="119.668" fill="white"/>
<rect x="1090.39" y="1216.78" width="119.668" height="119.668" fill="black"/>
<rect x="851.051" y="1216.78" width="119.668" height="119.668" fill="black"/>
<rect x="851" y="1729" width="59.8342" height="119.668" fill="white"/>
<rect x="970.668" y="1729" width="59.8342" height="119.668" fill="white"/>
<rect x="910.834" y="1848.67" width="59.8342" height="119.668" fill="white"/>
<rect x="851" y="1968.34" width="59.8342" height="119.668" fill="white"/>
<rect x="1030.5" y="2088.01" width="59.8342" height="119.668" fill="white"/>
<rect x="1030.5" y="1848.67" width="59.8342" height="119.668" fill="white"/>
<rect x="910.834" y="1729" width="59.8342" height="119.668" fill="black"/>
<rect x="970.668" y="1848.67" width="59.8342" height="119.668" fill="black"/>
<rect x="1030.5" y="1729" width="59.8342" height="119.668" fill="black"/>
<rect x="851" y="1848.67" width="59.8342" height="119.668" fill="black"/>
<rect x="970.668" y="1968.34" width="59.8342" height="119.668" fill="white"/>
<rect x="1030.5" y="1968.34" width="59.8342" height="119.668" fill="black"/>
<rect x="910.834" y="1968.34" width="59.8342" height="119.668" fill="black"/>
<rect x="910.834" y="2088.01" width="59.8342" height="119.668" fill="white"/>
<rect x="970.668" y="2088.01" width="59.8342" height="119.668" fill="black"/>
<rect x="851" y="2088.01" width="59.8342" height="119.668" fill="black"/>
<rect x="1090.34" y="1729" width="59.8342" height="119.668" fill="white"/>
<rect x="1210.01" y="1729" width="59.8342" height="119.668" fill="white"/>
<rect x="1150.17" y="1848.67" width="59.8342" height="119.668" fill="white"/>
<rect x="1090.34" y="1968.34" width="59.8342" height="119.668" fill="white"/>
<rect x="1269.84" y="2088.01" width="59.8342" height="119.668" fill="white"/>
<rect x="1269.84" y="1848.67" width="59.8342" height="119.668" fill="white"/>
<rect x="1150.17" y="1729" width="59.8342" height="119.668" fill="black"/>
<rect x="1210.01" y="1848.67" width="59.8342" height="119.668" fill="black"/>
<rect x="1269.84" y="1729" width="59.8342" height="119.668" fill="black"/>
<rect x="1090.34" y="1848.67" width="59.8342" height="119.668" fill="black"/>
<rect x="1210.01" y="1968.34" width="59.8342" height="119.668" fill="white"/>
<rect x="1269.84" y="1968.34" width="59.8342" height="119.668" fill="black"/>
<rect x="1150.17" y="1968.34" width="59.8342" height="119.668" fill="black"/>
<rect x="1150.17" y="2088.01" width="59.8342" height="119.668" fill="white"/>
<rect x="1210.01" y="2088.01" width="59.8342" height="119.668" fill="black"/>
<rect x="1090.34" y="2088.01" width="59.8342" height="119.668" fill="black"/>
<rect x="1329.72" width="59.8342" height="119.668" transform="rotate(90 1329.72 0)" fill="white"/>
<rect x="1329.72" y="119.668" width="59.8342" height="119.668" transform="rotate(90 1329.72 119.668)" fill="white"/>
<rect x="1210.06" y="59.834" width="59.8342" height="119.668" transform="rotate(90 1210.06 59.834)" fill="white"/>
<rect x="1090.39" width="59.8342" height="119.668" transform="rotate(90 1090.39 0)" fill="white"/>
<rect x="970.719" y="179.502" width="59.8342" height="119.668" transform="rotate(90 970.719 179.502)" fill="white"/>
<rect x="1210.06" y="179.502" width="59.8342" height="119.668" transform="rotate(90 1210.06 179.502)" fill="white"/>
<rect x="1329.72" y="59.834" width="59.8342" height="119.668" transform="rotate(90 1329.72 59.834)" fill="black"/>
<rect x="1210.06" y="119.668" width="59.8342" height="119.668" transform="rotate(90 1210.06 119.668)" fill="black"/>
<rect x="1329.72" y="179.502" width="59.8342" height="119.668" transform="rotate(90 1329.72 179.502)" fill="black"/>
<rect x="1210.06" width="59.8342" height="119.668" transform="rotate(90 1210.06 0)" fill="black"/>
<rect x="1090.39" y="119.668" width="59.8342" height="119.668" transform="rotate(90 1090.39 119.668)" fill="white"/>
<rect x="1090.39" y="179.502" width="59.8342" height="119.668" transform="rotate(90 1090.39 179.502)" fill="black"/>
<rect x="1090.39" y="59.834" width="59.8342" height="119.668" transform="rotate(90 1090.39 59.834)" fill="black"/>
<rect x="970.719" y="59.834" width="59.8342" height="119.668" transform="rotate(90 970.719 59.834)" fill="white"/>
<rect x="970.719" y="119.668" width="59.8342" height="119.668" transform="rotate(90 970.719 119.668)" fill="black"/>
<rect x="970.719" width="59.8342" height="119.668" transform="rotate(90 970.719 0)" fill="black"/>
<rect x="1329.72" y="239.336" width="59.8342" height="119.668" transform="rotate(90 1329.72 239.336)" fill="white"/>
<rect x="1329.72" y="359.004" width="59.8342" height="119.668" transform="rotate(90 1329.72 359.004)" fill="white"/>
<rect x="1210.06" y="299.17" width="59.8342" height="119.668" transform="rotate(90 1210.06 299.17)" fill="white"/>
<rect x="1090.39" y="239.336" width="59.8342" height="119.668" transform="rotate(90 1090.39 239.336)" fill="white"/>
<rect x="970.719" y="418.838" width="59.8342" height="119.668" transform="rotate(90 970.719 418.838)" fill="white"/>
<rect x="1210.06" y="418.838" width="59.8342" height="119.668" transform="rotate(90 1210.06 418.838)" fill="white"/>
<rect x="1329.72" y="299.17" width="59.8342" height="119.668" transform="rotate(90 1329.72 299.17)" fill="black"/>
<rect x="1210.06" y="359.004" width="59.8342" height="119.668" transform="rotate(90 1210.06 359.004)" fill="black"/>
<rect x="1329.72" y="418.838" width="59.8342" height="119.668" transform="rotate(90 1329.72 418.838)" fill="black"/>
<rect x="1210.06" y="239.336" width="59.8342" height="119.668" transform="rotate(90 1210.06 239.336)" fill="black"/>
<rect x="1090.39" y="359.004" width="59.8342" height="119.668" transform="rotate(90 1090.39 359.004)" fill="white"/>
<rect x="1090.39" y="418.838" width="59.8342" height="119.668" transform="rotate(90 1090.39 418.838)" fill="black"/>
<rect x="1090.39" y="299.17" width="59.8342" height="119.668" transform="rotate(90 1090.39 299.17)" fill="black"/>
<rect x="970.719" y="299.17" width="59.8342" height="119.668" transform="rotate(90 970.719 299.17)" fill="white"/>
<rect x="970.719" y="359.004" width="59.8342" height="119.668" transform="rotate(90 970.719 359.004)" fill="black"/>
<rect x="970.719" y="239.336" width="59.8342" height="119.668" transform="rotate(90 970.719 239.336)" fill="black"/>
<rect x="1689.1" y="1667.06" width="29.9171" height="29.9171" fill="white"/>
<rect x="1778.85" y="1577.31" width="29.9171" height="29.9171" fill="white"/>
<rect x="1719.02" y="1637.14" width="29.9171" height="29.9171" fill="white"/>
<rect x="1689.1" y="1607.22" width="29.9171" height="29.9171" fill="white"/>
<rect x="1748.94" y="1667.06" width="29.9171" height="29.9171" fill="white"/>
<rect x="1748.94" y="1607.22" width="29.9171" height="29.9171" fill="white"/>
<rect x="1719.02" y="1607.22" width="29.9171" height="29.9171" fill="black"/>
<rect x="1778.85" y="1607.22" width="29.9171" height="29.9171" fill="black"/>
<rect x="1748.94" y="1577.31" width="29.9171" height="29.9171" fill="black"/>
<rect x="1689.1" y="1577.31" width="29.9171" height="29.9171" fill="black"/>
<rect x="1778.85" y="1637.14" width="29.9171" height="29.9171" fill="white"/>
<rect x="1748.94" y="1637.14" width="29.9171" height="29.9171" fill="black"/>
<rect x="1719.02" y="1667.06" width="29.9171" height="29.9171" fill="black"/>
<rect x="1719.02" y="1577.31" width="29.9171" height="29.9171" fill="white"/>
<rect x="1778.85" y="1667.06" width="29.9171" height="29.9171" fill="black"/>
<rect x="1689.1" y="1637.14" width="29.9171" height="29.9171" fill="black"/>
<rect x="1808.77" y="1667.06" width="29.9171" height="29.9171" fill="white"/>
<rect x="1898.52" y="1577.31" width="29.9171" height="29.9171" fill="white"/>
<rect x="1838.69" y="1637.14" width="29.9171" height="29.9171" fill="white"/>
<rect x="1808.77" y="1607.22" width="29.9171" height="29.9171" fill="white"/>
<rect x="1868.6" y="1667.06" width="29.9171" height="29.9171" fill="white"/>
<rect x="1868.6" y="1607.22" width="29.9171" height="29.9171" fill="white"/>
<rect x="1838.69" y="1607.22" width="29.9171" height="29.9171" fill="black"/>
<rect x="1898.52" y="1607.22" width="29.9171" height="29.9171" fill="black"/>
<rect x="1868.6" y="1577.31" width="29.9171" height="29.9171" fill="black"/>
<rect x="1808.77" y="1577.31" width="29.9171" height="29.9171" fill="black"/>
<rect x="1898.52" y="1637.14" width="29.9171" height="29.9171" fill="white"/>
<rect x="1868.6" y="1637.14" width="29.9171" height="29.9171" fill="black"/>
<rect x="1838.69" y="1667.06" width="29.9171" height="29.9171" fill="black"/>
<rect x="1838.69" y="1577.31" width="29.9171" height="29.9171" fill="white"/>
<rect x="1898.52" y="1667.06" width="29.9171" height="29.9171" fill="black"/>
<rect x="1808.77" y="1637.14" width="29.9171" height="29.9171" fill="black"/>
<rect x="1689.1" y="1547.39" width="29.9171" height="29.9171" fill="white"/>
<rect x="1778.85" y="1457.64" width="29.9171" height="29.9171" fill="white"/>
<rect x="1719.02" y="1517.47" width="29.9171" height="29.9171" fill="white"/>
<rect x="1689.1" y="1487.56" width="29.9171" height="29.9171" fill="white"/>
<rect x="1748.94" y="1547.39" width="29.9171" height="29.9171" fill="white"/>
<rect x="1748.94" y="1487.56" width="29.9171" height="29.9171" fill="white"/>
<rect x="1719.02" y="1487.56" width="29.9171" height="29.9171" fill="black"/>
<rect x="1778.85" y="1487.56" width="29.9171" height="29.9171" fill="black"/>
<rect x="1748.94" y="1457.64" width="29.9171" height="29.9171" fill="black"/>
<rect x="1689.1" y="1457.64" width="29.9171" height="29.9171" fill="black"/>
<rect x="1778.85" y="1517.47" width="29.9171" height="29.9171" fill="white"/>
<rect x="1748.94" y="1517.47" width="29.9171" height="29.9171" fill="black"/>
<rect x="1719.02" y="1547.39" width="29.9171" height="29.9171" fill="black"/>
<rect x="1719.02" y="1457.64" width="29.9171" height="29.9171" fill="white"/>
<rect x="1778.85" y="1547.39" width="29.9171" height="29.9171" fill="black"/>
<rect x="1689.1" y="1517.47" width="29.9171" height="29.9171" fill="black"/>
<rect x="1808.77" y="1547.39" width="29.9171" height="29.9171" fill="white"/>
<rect x="1898.52" y="1457.64" width="29.9171" height="29.9171" fill="white"/>
<rect x="1838.69" y="1517.47" width="29.9171" height="29.9171" fill="white"/>
<rect x="1808.77" y="1487.56" width="29.9171" height="29.9171" fill="white"/>
<rect x="1868.6" y="1547.39" width="29.9171" height="29.9171" fill="white"/>
<rect x="1868.6" y="1487.56" width="29.9171" height="29.9171" fill="white"/>
<rect x="1838.69" y="1487.56" width="29.9171" height="29.9171" fill="black"/>
<rect x="1898.52" y="1487.56" width="29.9171" height="29.9171" fill="black"/>
<rect x="1868.6" y="1457.64" width="29.9171" height="29.9171" fill="black"/>
<rect x="1808.77" y="1457.64" width="29.9171" height="29.9171" fill="black"/>
<rect x="1898.52" y="1517.47" width="29.9171" height="29.9171" fill="white"/>
<rect x="1868.6" y="1517.47" width="29.9171" height="29.9171" fill="black"/>
<rect x="1838.69" y="1547.39" width="29.9171" height="29.9171" fill="black"/>
<rect x="1838.69" y="1457.64" width="29.9171" height="29.9171" fill="white"/>
<rect x="1898.52" y="1547.39" width="29.9171" height="29.9171" fill="black"/>
<rect x="1808.77" y="1517.47" width="29.9171" height="29.9171" fill="black"/>
<rect x="1928.44" y="1667.06" width="29.9171" height="29.9171" fill="white"/>
<rect x="2018.19" y="1577.31" width="29.9171" height="29.9171" fill="white"/>
<rect x="1958.36" y="1637.14" width="29.9171" height="29.9171" fill="white"/>
<rect x="1928.44" y="1607.22" width="29.9171" height="29.9171" fill="white"/>
<rect x="1988.27" y="1667.06" width="29.9171" height="29.9171" fill="white"/>
<rect x="1988.27" y="1607.22" width="29.9171" height="29.9171" fill="white"/>
<rect x="1958.36" y="1607.22" width="29.9171" height="29.9171" fill="black"/>
<rect x="2018.19" y="1607.22" width="29.9171" height="29.9171" fill="black"/>
<rect x="1988.27" y="1577.31" width="29.9171" height="29.9171" fill="black"/>
<rect x="1928.44" y="1577.31" width="29.9171" height="29.9171" fill="black"/>
<rect x="2018.19" y="1637.14" width="29.9171" height="29.9171" fill="white"/>
<rect x="1988.27" y="1637.14" width="29.9171" height="29.9171" fill="black"/>
<rect x="1958.36" y="1667.06" width="29.9171" height="29.9171" fill="black"/>
<rect x="1958.36" y="1577.31" width="29.9171" height="29.9171" fill="white"/>
<rect x="2018.19" y="1667.06" width="29.9171" height="29.9171" fill="black"/>
<rect x="1928.44" y="1637.14" width="29.9171" height="29.9171" fill="black"/>
<rect x="2048.11" y="1667.06" width="29.9171" height="29.9171" fill="white"/>
<rect x="2137.86" y="1577.31" width="29.9171" height="29.9171" fill="white"/>
<rect x="2078.02" y="1637.14" width="29.9171" height="29.9171" fill="white"/>
<rect x="2048.11" y="1607.22" width="29.9171" height="29.9171" fill="white"/>
<rect x="2107.94" y="1667.06" width="29.9171" height="29.9171" fill="white"/>
<rect x="2107.94" y="1607.22" width="29.9171" height="29.9171" fill="white"/>
<rect x="2078.02" y="1607.22" width="29.9171" height="29.9171" fill="black"/>
<rect x="2137.86" y="1607.22" width="29.9171" height="29.9171" fill="black"/>
<rect x="2107.94" y="1577.31" width="29.9171" height="29.9171" fill="black"/>
<rect x="2048.11" y="1577.31" width="29.9171" height="29.9171" fill="black"/>
<rect x="2137.86" y="1637.14" width="29.9171" height="29.9171" fill="white"/>
<rect x="2107.94" y="1637.14" width="29.9171" height="29.9171" fill="black"/>
<rect x="2078.02" y="1667.06" width="29.9171" height="29.9171" fill="black"/>
<rect x="2078.02" y="1577.31" width="29.9171" height="29.9171" fill="white"/>
<rect x="2137.86" y="1667.06" width="29.9171" height="29.9171" fill="black"/>
<rect x="2048.11" y="1637.14" width="29.9171" height="29.9171" fill="black"/>
<rect x="1928.44" y="1547.39" width="29.9171" height="29.9171" fill="white"/>
<rect x="2018.19" y="1457.64" width="29.9171" height="29.9171" fill="white"/>
<rect x="1958.36" y="1517.47" width="29.9171" height="29.9171" fill="white"/>
<rect x="1928.44" y="1487.56" width="29.9171" height="29.9171" fill="white"/>
<rect x="1988.27" y="1547.39" width="29.9171" height="29.9171" fill="white"/>
<rect x="1988.27" y="1487.56" width="29.9171" height="29.9171" fill="white"/>
<rect x="1958.36" y="1487.56" width="29.9171" height="29.9171" fill="black"/>
<rect x="2018.19" y="1487.56" width="29.9171" height="29.9171" fill="black"/>
<rect x="1988.27" y="1457.64" width="29.9171" height="29.9171" fill="black"/>
<rect x="1928.44" y="1457.64" width="29.9171" height="29.9171" fill="black"/>
<rect x="2018.19" y="1517.47" width="29.9171" height="29.9171" fill="white"/>
<rect x="1988.27" y="1517.47" width="29.9171" height="29.9171" fill="black"/>
<rect x="1958.36" y="1547.39" width="29.9171" height="29.9171" fill="black"/>
<rect x="1958.36" y="1457.64" width="29.9171" height="29.9171" fill="white"/>
<rect x="2018.19" y="1547.39" width="29.9171" height="29.9171" fill="black"/>
<rect x="1928.44" y="1517.47" width="29.9171" height="29.9171" fill="black"/>
<rect x="2048.11" y="1547.39" width="29.9171" height="29.9171" fill="white"/>
<rect x="2137.86" y="1457.64" width="29.9171" height="29.9171" fill="white"/>
<rect x="2078.02" y="1517.47" width="29.9171" height="29.9171" fill="white"/>
<rect x="2048.11" y="1487.56" width="29.9171" height="29.9171" fill="white"/>
<rect x="2107.94" y="1547.39" width="29.9171" height="29.9171" fill="white"/>
<rect x="2107.94" y="1487.56" width="29.9171" height="29.9171" fill="white"/>
<rect x="2078.02" y="1487.56" width="29.9171" height="29.9171" fill="black"/>
<rect x="2137.86" y="1487.56" width="29.9171" height="29.9171" fill="black"/>
<rect x="2107.94" y="1457.64" width="29.9171" height="29.9171" fill="black"/>
<rect x="2048.11" y="1457.64" width="29.9171" height="29.9171" fill="black"/>
<rect x="2137.86" y="1517.47" width="29.9171" height="29.9171" fill="white"/>
<rect x="2107.94" y="1517.47" width="29.9171" height="29.9171" fill="black"/>
<rect x="2078.02" y="1547.39" width="29.9171" height="29.9171" fill="black"/>
<rect x="2078.02" y="1457.64" width="29.9171" height="29.9171" fill="white"/>
<rect x="2137.86" y="1547.39" width="29.9171" height="29.9171" fill="black"/>
<rect x="2048.11" y="1517.47" width="29.9171" height="29.9171" fill="black"/>
<rect x="1689.1" y="1427.72" width="29.9171" height="29.9171" fill="white"/>
<rect x="1778.85" y="1337.97" width="29.9171" height="29.9171" fill="white"/>
<rect x="1719.02" y="1397.8" width="29.9171" height="29.9171" fill="white"/>
<rect x="1689.1" y="1367.89" width="29.9171" height="29.9171" fill="white"/>
<rect x="1748.94" y="1427.72" width="29.9171" height="29.9171" fill="white"/>
<rect x="1748.94" y="1367.89" width="29.9171" height="29.9171" fill="white"/>
<rect x="1719.02" y="1367.89" width="29.9171" height="29.9171" fill="black"/>
<rect x="1778.85" y="1367.89" width="29.9171" height="29.9171" fill="black"/>
<rect x="1748.94" y="1337.97" width="29.9171" height="29.9171" fill="black"/>
<rect x="1689.1" y="1337.97" width="29.9171" height="29.9171" fill="black"/>
<rect x="1778.85" y="1397.8" width="29.9171" height="29.9171" fill="white"/>
<rect x="1748.94" y="1397.8" width="29.9171" height="29.9171" fill="black"/>
<rect x="1719.02" y="1427.72" width="29.9171" height="29.9171" fill="black"/>
<rect x="1719.02" y="1337.97" width="29.9171" height="29.9171" fill="white"/>
<rect x="1778.85" y="1427.72" width="29.9171" height="29.9171" fill="black"/>
<rect x="1689.1" y="1397.8" width="29.9171" height="29.9171" fill="black"/>
<rect x="1808.77" y="1427.72" width="29.9171" height="29.9171" fill="white"/>
<rect x="1898.52" y="1337.97" width="29.9171" height="29.9171" fill="white"/>
<rect x="1838.69" y="1397.8" width="29.9171" height="29.9171" fill="white"/>
<rect x="1808.77" y="1367.89" width="29.9171" height="29.9171" fill="white"/>
<rect x="1868.6" y="1427.72" width="29.9171" height="29.9171" fill="white"/>
<rect x="1868.6" y="1367.89" width="29.9171" height="29.9171" fill="white"/>
<rect x="1838.69" y="1367.89" width="29.9171" height="29.9171" fill="black"/>
<rect x="1898.52" y="1367.89" width="29.9171" height="29.9171" fill="black"/>
<rect x="1868.6" y="1337.97" width="29.9171" height="29.9171" fill="black"/>
<rect x="1808.77" y="1337.97" width="29.9171" height="29.9171" fill="black"/>
<rect x="1898.52" y="1397.8" width="29.9171" height="29.9171" fill="white"/>
<rect x="1868.6" y="1397.8" width="29.9171" height="29.9171" fill="black"/>
<rect x="1838.69" y="1427.72" width="29.9171" height="29.9171" fill="black"/>
<rect x="1838.69" y="1337.97" width="29.9171" height="29.9171" fill="white"/>
<rect x="1898.52" y="1427.72" width="29.9171" height="29.9171" fill="black"/>
<rect x="1808.77" y="1397.8" width="29.9171" height="29.9171" fill="black"/>
<rect x="1689.1" y="1308.05" width="29.9171" height="29.9171" fill="white"/>
<rect x="1778.85" y="1218.3" width="29.9171" height="29.9171" fill="white"/>
<rect x="1719.02" y="1278.13" width="29.9171" height="29.9171" fill="white"/>
<rect x="1689.1" y="1248.22" width="29.9171" height="29.9171" fill="white"/>
<rect x="1748.94" y="1308.05" width="29.9171" height="29.9171" fill="white"/>
<rect x="1748.94" y="1248.22" width="29.9171" height="29.9171" fill="white"/>
<rect x="1719.02" y="1248.22" width="29.9171" height="29.9171" fill="black"/>
<rect x="1778.85" y="1248.22" width="29.9171" height="29.9171" fill="black"/>
<rect x="1748.94" y="1218.3" width="29.9171" height="29.9171" fill="black"/>
<rect x="1689.1" y="1218.3" width="29.9171" height="29.9171" fill="black"/>
<rect x="1778.85" y="1278.13" width="29.9171" height="29.9171" fill="white"/>
<rect x="1748.94" y="1278.13" width="29.9171" height="29.9171" fill="black"/>
<rect x="1719.02" y="1308.05" width="29.9171" height="29.9171" fill="black"/>
<rect x="1719.02" y="1218.3" width="29.9171" height="29.9171" fill="white"/>
<rect x="1778.85" y="1308.05" width="29.9171" height="29.9171" fill="black"/>
<rect x="1689.1" y="1278.13" width="29.9171" height="29.9171" fill="black"/>
<rect x="1808.77" y="1308.05" width="29.9171" height="29.9171" fill="white"/>
<rect x="1898.52" y="1218.3" width="29.9171" height="29.9171" fill="white"/>
<rect x="1838.69" y="1278.13" width="29.9171" height="29.9171" fill="white"/>
<rect x="1808.77" y="1248.22" width="29.9171" height="29.9171" fill="white"/>
<rect x="1868.6" y="1308.05" width="29.9171" height="29.9171" fill="white"/>
<rect x="1868.6" y="1248.22" width="29.9171" height="29.9171" fill="white"/>
<rect x="1838.69" y="1248.22" width="29.9171" height="29.9171" fill="black"/>
<rect x="1898.52" y="1248.22" width="29.9171" height="29.9171" fill="black"/>
<rect x="1868.6" y="1218.3" width="29.9171" height="29.9171" fill="black"/>
<rect x="1808.77" y="1218.3" width="29.9171" height="29.9171" fill="black"/>
<rect x="1898.52" y="1278.13" width="29.9171" height="29.9171" fill="white"/>
<rect x="1868.6" y="1278.13" width="29.9171" height="29.9171" fill="black"/>
<rect x="1838.69" y="1308.05" width="29.9171" height="29.9171" fill="black"/>
<rect x="1838.69" y="1218.3" width="29.9171" height="29.9171" fill="white"/>
<rect x="1898.52" y="1308.05" width="29.9171" height="29.9171" fill="black"/>
<rect x="1808.77" y="1278.13" width="29.9171" height="29.9171" fill="black"/>
<rect x="1928.44" y="1427.72" width="29.9171" height="29.9171" fill="white"/>
<rect x="2018.19" y="1337.97" width="29.9171" height="29.9171" fill="white"/>
<rect x="1958.36" y="1397.8" width="29.9171" height="29.9171" fill="white"/>
<rect x="1928.44" y="1367.89" width="29.9171" height="29.9171" fill="white"/>
<rect x="1988.27" y="1427.72" width="29.9171" height="29.9171" fill="white"/>
<rect x="1988.27" y="1367.89" width="29.9171" height="29.9171" fill="white"/>
<rect x="1958.36" y="1367.89" width="29.9171" height="29.9171" fill="black"/>
<rect x="2018.19" y="1367.89" width="29.9171" height="29.9171" fill="black"/>
<rect x="1988.27" y="1337.97" width="29.9171" height="29.9171" fill="black"/>
<rect x="1928.44" y="1337.97" width="29.9171" height="29.9171" fill="black"/>
<rect x="2018.19" y="1397.8" width="29.9171" height="29.9171" fill="white"/>
<rect x="1988.27" y="1397.8" width="29.9171" height="29.9171" fill="black"/>
<rect x="1958.36" y="1427.72" width="29.9171" height="29.9171" fill="black"/>
<rect x="1958.36" y="1337.97" width="29.9171" height="29.9171" fill="white"/>
<rect x="2018.19" y="1427.72" width="29.9171" height="29.9171" fill="black"/>
<rect x="1928.44" y="1397.8" width="29.9171" height="29.9171" fill="black"/>
<rect x="2048.11" y="1427.72" width="29.9171" height="29.9171" fill="white"/>
<rect x="2137.86" y="1337.97" width="29.9171" height="29.9171" fill="white"/>
<rect x="2078.02" y="1397.8" width="29.9171" height="29.9171" fill="white"/>
<rect x="2048.11" y="1367.89" width="29.9171" height="29.9171" fill="white"/>
<rect x="2107.94" y="1427.72" width="29.9171" height="29.9171" fill="white"/>
<rect x="2107.94" y="1367.89" width="29.9171" height="29.9171" fill="white"/>
<rect x="2078.02" y="1367.89" width="29.9171" height="29.9171" fill="black"/>
<rect x="2137.86" y="1367.89" width="29.9171" height="29.9171" fill="black"/>
<rect x="2107.94" y="1337.97" width="29.9171" height="29.9171" fill="black"/>
<rect x="2048.11" y="1337.97" width="29.9171" height="29.9171" fill="black"/>
<rect x="2137.86" y="1397.8" width="29.9171" height="29.9171" fill="white"/>
<rect x="2107.94" y="1397.8" width="29.9171" height="29.9171" fill="black"/>
<rect x="2078.02" y="1427.72" width="29.9171" height="29.9171" fill="black"/>
<rect x="2078.02" y="1337.97" width="29.9171" height="29.9171" fill="white"/>
<rect x="2137.86" y="1427.72" width="29.9171" height="29.9171" fill="black"/>
<rect x="2048.11" y="1397.8" width="29.9171" height="29.9171" fill="black"/>
<rect x="1928.44" y="1308.05" width="29.9171" height="29.9171" fill="white"/>
<rect x="2018.19" y="1218.3" width="29.9171" height="29.9171" fill="white"/>
<rect x="1958.36" y="1278.13" width="29.9171" height="29.9171" fill="white"/>
<rect x="1928.44" y="1248.22" width="29.9171" height="29.9171" fill="white"/>
<rect x="1988.27" y="1308.05" width="29.9171" height="29.9171" fill="white"/>
<rect x="1988.27" y="1248.22" width="29.9171" height="29.9171" fill="white"/>
<rect x="1958.36" y="1248.22" width="29.9171" height="29.9171" fill="black"/>
<rect x="2018.19" y="1248.22" width="29.9171" height="29.9171" fill="black"/>
<rect x="1988.27" y="1218.3" width="29.9171" height="29.9171" fill="black"/>
<rect x="1928.44" y="1218.3" width="29.9171" height="29.9171" fill="black"/>
<rect x="2018.19" y="1278.13" width="29.9171" height="29.9171" fill="white"/>
<rect x="1988.27" y="1278.13" width="29.9171" height="29.9171" fill="black"/>
<rect x="1958.36" y="1308.05" width="29.9171" height="29.9171" fill="black"/>
<rect x="1958.36" y="1218.3" width="29.9171" height="29.9171" fill="white"/>
<rect x="2018.19" y="1308.05" width="29.9171" height="29.9171" fill="black"/>
<rect x="1928.44" y="1278.13" width="29.9171" height="29.9171" fill="black"/>
<rect x="2048.11" y="1308.05" width="29.9171" height="29.9171" fill="white"/>
<rect x="2137.86" y="1218.3" width="29.9171" height="29.9171" fill="white"/>
<rect x="2078.02" y="1278.13" width="29.9171" height="29.9171" fill="white"/>
<rect x="2048.11" y="1248.22" width="29.9171" height="29.9171" fill="white"/>
<rect x="2107.94" y="1308.05" width="29.9171" height="29.9171" fill="white"/>
<rect x="2107.94" y="1248.22" width="29.9171" height="29.9171" fill="white"/>
<rect x="2078.02" y="1248.22" width="29.9171" height="29.9171" fill="black"/>
<rect x="2137.86" y="1248.22" width="29.9171" height="29.9171" fill="black"/>
<rect x="2107.94" y="1218.3" width="29.9171" height="29.9171" fill="black"/>
<rect x="2048.11" y="1218.3" width="29.9171" height="29.9171" fill="black"/>
<rect x="2137.86" y="1278.13" width="29.9171" height="29.9171" fill="white"/>
<rect x="2107.94" y="1278.13" width="29.9171" height="29.9171" fill="black"/>
<rect x="2078.02" y="1308.05" width="29.9171" height="29.9171" fill="black"/>
<rect x="2078.02" y="1218.3" width="29.9171" height="29.9171" fill="white"/>
<rect x="2137.86" y="1308.05" width="29.9171" height="29.9171" fill="black"/>
<rect x="2048.11" y="1278.13" width="29.9171" height="29.9171" fill="black"/>
<rect x="1689.1" y="944.84" width="59.8342" height="59.8342" fill="white"/>
<rect x="1868.6" y="765.336" width="59.8342" height="59.8342" fill="white"/>
<rect x="1748.94" y="885.006" width="59.8342" height="59.8342" fill="white"/>
<rect x="1689.1" y="825.17" width="59.8342" height="59.8342" fill="white"/>
<rect x="1808.77" y="944.84" width="59.8342" height="59.8342" fill="white"/>
<rect x="1808.77" y="825.17" width="59.8342" height="59.8342" fill="white"/>
<rect x="1748.94" y="825.17" width="59.8342" height="59.8342" fill="black"/>
<rect x="1868.6" y="825.17" width="59.8342" height="59.8342" fill="black"/>
<rect x="1808.77" y="765.336" width="59.8342" height="59.8342" fill="black"/>
<rect x="1689.1" y="765.336" width="59.8342" height="59.8342" fill="black"/>
<rect x="1868.6" y="885.006" width="59.8342" height="59.8342" fill="white"/>
<rect x="1808.77" y="885.006" width="59.8342" height="59.8342" fill="black"/>
<rect x="1748.94" y="944.84" width="59.8342" height="59.8342" fill="black"/>
<rect x="1748.94" y="765.336" width="59.8342" height="59.8342" fill="white"/>
<rect x="1868.6" y="944.84" width="59.8342" height="59.8342" fill="black"/>
<rect x="1689.1" y="885.006" width="59.8342" height="59.8342" fill="black"/>
<rect x="1928.44" y="944.84" width="59.8342" height="59.8342" fill="white"/>
<rect x="2107.94" y="765.336" width="59.8342" height="59.8342" fill="white"/>
<rect x="1988.27" y="885.006" width="59.8342" height="59.8342" fill="white"/>
<rect x="1928.44" y="825.17" width="59.8342" height="59.8342" fill="white"/>
<rect x="2048.11" y="944.84" width="59.8342" height="59.8342" fill="white"/>
<rect x="2048.11" y="825.17" width="59.8342" height="59.8342" fill="white"/>
<rect x="1988.27" y="825.17" width="59.8342" height="59.8342" fill="black"/>
<rect x="2107.94" y="825.17" width="59.8342" height="59.8342" fill="black"/>
<rect x="2048.11" y="765.336" width="59.8342" height="59.8342" fill="black"/>
<rect x="1928.44" y="765.336" width="59.8342" height="59.8342" fill="black"/>
<rect x="2107.94" y="885.006" width="59.8342" height="59.8342" fill="white"/>
<rect x="2048.11" y="885.006" width="59.8342" height="59.8342" fill="black"/>
<rect x="1988.27" y="944.84" width="59.8342" height="59.8342" fill="black"/>
<rect x="1988.27" y="765.336" width="59.8342" height="59.8342" fill="white"/>
<rect x="2107.94" y="944.84" width="59.8342" height="59.8342" fill="black"/>
<rect x="1928.44" y="885.006" width="59.8342" height="59.8342" fill="black"/>
<rect x="1689.1" y="705.502" width="59.8342" height="59.8342" fill="white"/>
<rect x="1868.6" y="526" width="59.8342" height="59.8342" fill="white"/>
<rect x="1748.94" y="645.668" width="59.8342" height="59.8342" fill="white"/>
<rect x="1689.1" y="585.834" width="59.8342" height="59.8342" fill="white"/>
<rect x="1808.77" y="705.502" width="59.8342" height="59.8342" fill="white"/>
<rect x="1808.77" y="585.834" width="59.8342" height="59.8342" fill="white"/>
<rect x="1748.94" y="585.834" width="59.8342" height="59.8342" fill="black"/>
<rect x="1868.6" y="585.834" width="59.8342" height="59.8342" fill="black"/>
<rect x="1808.77" y="526" width="59.8342" height="59.8342" fill="black"/>
<rect x="1689.1" y="526" width="59.8342" height="59.8342" fill="black"/>
<rect x="1868.6" y="645.668" width="59.8342" height="59.8342" fill="white"/>
<rect x="1808.77" y="645.668" width="59.8342" height="59.8342" fill="black"/>
<rect x="1748.94" y="705.502" width="59.8342" height="59.8342" fill="black"/>
<rect x="1748.94" y="526" width="59.8342" height="59.8342" fill="white"/>
<rect x="1868.6" y="705.502" width="59.8342" height="59.8342" fill="black"/>
<rect x="1689.1" y="645.668" width="59.8342" height="59.8342" fill="black"/>
<rect x="1928.44" y="705.502" width="59.8342" height="59.8342" fill="white"/>
<rect x="2107.94" y="526" width="59.8342" height="59.8342" fill="white"/>
<rect x="1988.27" y="645.668" width="59.8342" height="59.8342" fill="white"/>
<rect x="1928.44" y="585.834" width="59.8342" height="59.8342" fill="white"/>
<rect x="2048.11" y="705.502" width="59.8342" height="59.8342" fill="white"/>
<rect x="2048.11" y="585.834" width="59.8342" height="59.8342" fill="white"/>
<rect x="1988.27" y="585.834" width="59.8342" height="59.8342" fill="black"/>
<rect x="2107.94" y="585.834" width="59.8342" height="59.8342" fill="black"/>
<rect x="2048.11" y="526" width="59.8342" height="59.8342" fill="black"/>
<rect x="1928.44" y="526" width="59.8342" height="59.8342" fill="black"/>
<rect x="2107.94" y="645.668" width="59.8342" height="59.8342" fill="white"/>
<rect x="2048.11" y="645.668" width="59.8342" height="59.8342" fill="black"/>
<rect x="1988.27" y="705.502" width="59.8342" height="59.8342" fill="black"/>
<rect x="1988.27" y="526" width="59.8342" height="59.8342" fill="white"/>
<rect x="2107.94" y="705.502" width="59.8342" height="59.8342" fill="black"/>
<rect x="1928.44" y="645.668" width="59.8342" height="59.8342" fill="black"/>
<path d="M1087.17 770.828C1088.73 772.391 1091.27 772.391 1092.83 770.828L1118.28 745.373C1119.85 743.81 1119.85 741.278 1118.28 739.716C1116.72 738.154 1114.19 738.154 1112.63 739.716L1090 762.343L1067.37 739.716C1065.81 738.154 1063.28 738.154 1061.72 739.716C1060.15 741.278 1060.15 743.81 1061.72 745.373L1087.17 770.828ZM1094 541C1094 538.791 1092.21 537 1090 537C1087.79 537 1086 538.791 1086 541L1094 541ZM1086 541L1086 768L1094 768L1094 541L1086 541Z" fill="white"/>
<path d="M1087.17 1410.17C1088.73 1408.61 1091.27 1408.61 1092.83 1410.17L1118.28 1435.63C1119.85 1437.19 1119.85 1439.72 1118.28 1441.28C1116.72 1442.85 1114.19 1442.85 1112.63 1441.28L1090 1418.66L1067.37 1441.28C1065.81 1442.85 1063.28 1442.85 1061.72 1441.28C1060.15 1439.72 1060.15 1437.19 1061.72 1435.63L1087.17 1410.17ZM1094 1640C1094 1642.21 1092.21 1644 1090 1644C1087.79 1644 1086 1642.21 1086 1640L1094 1640ZM1086 1640L1086 1413L1094 1413L1094 1640L1086 1640Z" fill="white"/>
<path d="M1457.93 1273.65C1455.73 1273.68 1453.96 1275.5 1454 1277.71L1454.59 1313.71C1454.63 1315.92 1456.45 1317.68 1458.66 1317.64C1460.86 1317.6 1462.63 1315.78 1462.59 1313.58L1462.07 1281.58L1494.06 1281.06C1496.27 1281.02 1498.03 1279.2 1497.99 1276.99C1497.96 1274.78 1496.14 1273.02 1493.93 1273.06L1457.93 1273.65ZM1641.22 1460.52C1642.81 1462.06 1645.34 1462.02 1646.87 1460.43C1648.41 1458.84 1648.37 1456.31 1646.78 1454.77L1641.22 1460.52ZM1646.78 1454.77L1460.78 1274.77L1455.22 1280.52L1641.22 1460.52L1646.78 1454.77Z" fill="white"/>
<path d="M1457.93 951.646C1455.73 951.61 1453.96 949.79 1454 947.581L1454.59 911.586C1454.63 909.377 1456.45 907.616 1458.66 907.652C1460.86 907.688 1462.63 909.508 1462.59 911.717L1462.07 943.713L1494.06 944.237C1496.27 944.273 1498.03 946.093 1497.99 948.302C1497.96 950.511 1496.14 952.272 1493.93 952.236L1457.93 951.646ZM1641.22 764.772C1642.81 763.236 1645.34 763.277 1646.87 764.865C1648.41 766.452 1648.37 768.985 1646.78 770.521L1641.22 764.772ZM1646.78 770.521L1460.78 950.521L1455.22 944.772L1641.22 764.772L1646.78 770.521Z" fill="white"/>
<path d="M723.066 951.646C725.274 951.61 727.036 949.79 726.999 947.581L726.409 911.586C726.373 909.377 724.553 907.616 722.344 907.652C720.135 907.688 718.374 909.508 718.41 911.717L718.935 943.713L686.939 944.237C684.73 944.273 682.969 946.093 683.005 948.302C683.042 950.511 684.862 952.272 687.07 952.236L723.066 951.646ZM539.782 764.772C538.194 763.236 535.662 763.277 534.126 764.865C532.589 766.452 532.631 768.985 534.218 770.521L539.782 764.772ZM534.218 770.521L720.218 950.521L725.782 944.772L539.782 764.772L534.218 770.521Z" fill="white"/>
<path d="M723.066 1273.65C725.274 1273.68 727.036 1275.5 726.999 1277.71L726.409 1313.71C726.373 1315.92 724.553 1317.68 722.344 1317.64C720.135 1317.6 718.374 1315.78 718.41 1313.58L718.935 1281.58L686.939 1281.06C684.73 1281.02 682.969 1279.2 683.005 1276.99C683.042 1274.78 684.862 1273.02 687.07 1273.06L723.066 1273.65ZM539.782 1460.52C538.194 1462.06 535.662 1462.02 534.126 1460.43C532.589 1458.84 532.631 1456.31 534.218 1454.77L539.782 1460.52ZM534.218 1454.77L720.218 1274.77L725.782 1280.52L539.782 1460.52L534.218 1454.77Z" fill="white"/>
</svg>
