<svg width="830" height="464" viewBox="0 0 830 464" fill="none" xmlns="http://www.w3.org/2000/svg">
<path d="M478.727 191.03C479.119 190.64 479.12 190.007 478.73 189.615L472.376 183.242C471.986 182.85 471.353 182.85 470.961 183.239C470.57 183.629 470.569 184.263 470.959 184.654L476.607 190.319L470.942 195.967C470.551 196.357 470.55 196.99 470.939 197.382C471.329 197.773 471.963 197.774 472.354 197.384L478.727 191.03ZM270.998 191L478.02 191.321L478.023 189.321L271.002 189L270.998 191Z" fill="white"/>
<rect y="68" width="61.2471" height="61.2471" fill="#FBBF24"/>
<rect x="122.494" y="68" width="61.2471" height="61.2471" fill="#FBBF24"/>
<rect x="61.2461" y="129.247" width="61.2471" height="61.2471" fill="#FBBF24"/>
<rect y="190.494" width="61.2471" height="61.2471" fill="#FBBF24"/>
<rect x="183.742" y="251.741" width="61.2471" height="61.2471" fill="#FBBF24"/>
<rect x="183.742" y="129.247" width="61.2471" height="61.2471" fill="#FBBF24"/>
<rect x="61.2461" y="68" width="61.2471" height="61.2471" fill="#6D28D9"/>
<rect x="122.494" y="129.247" width="61.2471" height="61.2471" fill="#6D28D9"/>
<rect x="183.742" y="68" width="61.2471" height="61.2471" fill="#6D28D9"/>
<rect y="129.247" width="61.2471" height="61.2471" fill="#6D28D9"/>
<rect x="122.494" y="190.494" width="61.2471" height="61.2471" fill="#FBBF24"/>
<rect x="183.742" y="190.494" width="61.2471" height="61.2471" fill="#6D28D9"/>
<rect x="61.2461" y="190.494" width="61.2471" height="61.2471" fill="#6D28D9"/>
<rect x="61.2461" y="251.741" width="61.2471" height="61.2471" fill="#FBBF24"/>
<rect x="122.494" y="251.741" width="61.2471" height="61.2471" fill="#6D28D9"/>
<rect y="251.741" width="61.2471" height="61.2471" fill="#6D28D9"/>
<path d="M34.3269 87.73V109.915H29.6364V92.1822H29.5065L24.426 95.367V91.2073L29.9181 87.73H34.3269Z" fill="white"/>
<path d="M94.2642 110.218C92.7332 110.218 91.3683 109.937 90.1695 109.373C88.9779 108.81 88.0319 108.034 87.3314 107.044C86.6309 106.055 86.2662 104.921 86.2373 103.643H90.787C90.8375 104.502 91.1986 105.199 91.8702 105.734C92.5418 106.268 93.3398 106.535 94.2642 106.535C95.0008 106.535 95.6508 106.373 96.2141 106.048C96.7846 105.716 97.2287 105.257 97.5465 104.672C97.8714 104.08 98.0339 103.401 98.0339 102.636C98.0339 101.856 97.8678 101.17 97.5356 100.577C97.2107 99.9852 96.7593 99.523 96.1816 99.1908C95.6038 98.8586 94.943 98.6889 94.1992 98.6817C93.5493 98.6817 92.9174 98.8153 92.3035 99.0825C91.6969 99.3497 91.2239 99.7144 90.8845 100.177L86.7139 99.4292L87.7647 87.73H101.327V91.5648H91.6319L91.0578 97.1218H91.1878C91.5777 96.573 92.1663 96.118 92.9535 95.7569C93.7406 95.3959 94.6217 95.2153 95.5966 95.2153C96.9326 95.2153 98.1242 95.5295 99.1713 96.1577C100.218 96.786 101.045 97.649 101.652 98.7467C102.259 99.8372 102.558 101.094 102.551 102.516C102.558 104.011 102.212 105.34 101.511 106.503C100.818 107.658 99.8466 108.568 98.5972 109.233C97.3551 109.89 95.9107 110.218 94.2642 110.218Z" fill="white"/>
<path d="M22.7051 171.704C21.5641 171.696 20.4628 171.505 19.4012 171.13C18.3469 170.754 17.4008 170.144 16.5631 169.299C15.7254 168.454 15.061 167.335 14.5699 165.941C14.0861 164.547 13.8441 162.835 13.8441 160.806C13.8514 158.943 14.0644 157.278 14.4833 155.812C14.9093 154.339 15.516 153.09 16.3031 152.064C17.0975 151.039 18.0472 150.259 19.1521 149.725C20.257 149.183 21.4955 148.912 22.8676 148.912C24.3481 148.912 25.6552 149.201 26.789 149.779C27.9228 150.349 28.8327 151.126 29.5188 152.108C30.2121 153.09 30.6309 154.191 30.7754 155.412H26.1499C25.9693 154.639 25.5902 154.032 25.0125 153.592C24.4347 153.151 23.7198 152.931 22.8676 152.931C21.4233 152.931 20.3256 153.559 19.5745 154.816C18.8307 156.072 18.4516 157.78 18.4371 159.94H18.5888C18.921 159.282 19.3687 158.723 19.932 158.261C20.5025 157.791 21.1489 157.434 21.871 157.188C22.6004 156.935 23.3695 156.809 24.1784 156.809C25.4927 156.809 26.6626 157.12 27.6881 157.741C28.7136 158.354 29.5224 159.199 30.1146 160.275C30.7068 161.351 31.0028 162.583 31.0028 163.969C31.0028 165.471 30.6526 166.807 29.9521 167.977C29.2588 169.147 28.2875 170.064 27.0381 170.729C25.796 171.386 24.3517 171.711 22.7051 171.704ZM22.6835 168.021C23.4056 168.021 24.052 167.847 24.6225 167.501C25.193 167.154 25.6408 166.685 25.9657 166.092C26.2907 165.5 26.4532 164.836 26.4532 164.099C26.4532 163.363 26.2907 162.702 25.9657 162.117C25.648 161.532 25.2074 161.066 24.6442 160.72C24.0809 160.373 23.4381 160.2 22.716 160.2C22.1743 160.2 21.6724 160.301 21.2102 160.503C20.7553 160.705 20.3545 160.987 20.0078 161.348C19.6684 161.709 19.4012 162.128 19.2062 162.604C19.0112 163.074 18.9138 163.576 18.9138 164.11C18.9138 164.825 19.0762 165.479 19.4012 166.071C19.7334 166.663 20.1812 167.136 20.7445 167.49C21.315 167.844 21.9613 168.021 22.6835 168.021ZM42.8428 171.704C41.7018 171.696 40.6005 171.505 39.5389 171.13C38.4845 170.754 37.5385 170.144 36.7008 169.299C35.863 168.454 35.1986 167.335 34.7076 165.941C34.2237 164.547 33.9818 162.835 33.9818 160.806C33.989 158.943 34.2021 157.278 34.6209 155.812C35.047 154.339 35.6536 153.09 36.4408 152.064C37.2352 151.039 38.1848 150.259 39.2897 149.725C40.3946 149.183 41.6332 148.912 43.0053 148.912C44.4857 148.912 45.7928 149.201 46.9267 149.779C48.0605 150.349 48.9704 151.126 49.6564 152.108C50.3497 153.09 50.7686 154.191 50.913 155.412H46.2875C46.107 154.639 45.7279 154.032 45.1501 153.592C44.5724 153.151 43.8574 152.931 43.0053 152.931C41.5609 152.931 40.4632 153.559 39.7122 154.816C38.9684 156.072 38.5892 157.78 38.5748 159.94H38.7264C39.0586 159.282 39.5064 158.723 40.0697 158.261C40.6402 157.791 41.2865 157.434 42.0087 157.188C42.7381 156.935 43.5072 156.809 44.316 156.809C45.6304 156.809 46.8003 157.12 47.8258 157.741C48.8512 158.354 49.6601 159.199 50.2522 160.275C50.8444 161.351 51.1405 162.583 51.1405 163.969C51.1405 165.471 50.7902 166.807 50.0897 167.977C49.3965 169.147 48.4251 170.064 47.1758 170.729C45.9337 171.386 44.4893 171.711 42.8428 171.704ZM42.8211 168.021C43.5433 168.021 44.1896 167.847 44.7601 167.501C45.3307 167.154 45.7784 166.685 46.1034 166.092C46.4284 165.5 46.5908 164.836 46.5908 164.099C46.5908 163.363 46.4284 162.702 46.1034 162.117C45.7856 161.532 45.3451 161.066 44.7818 160.72C44.2185 160.373 43.5758 160.2 42.8536 160.2C42.312 160.2 41.8101 160.301 41.3479 160.503C40.8929 160.705 40.4921 160.987 40.1455 161.348C39.8061 161.709 39.5389 162.128 39.3439 162.604C39.1489 163.074 39.0514 163.576 39.0514 164.11C39.0514 164.825 39.2139 165.479 39.5389 166.071C39.8711 166.663 40.3188 167.136 40.8821 167.49C41.4526 167.844 42.099 168.021 42.8211 168.021Z" fill="white"/>
<path d="M75.5995 293.895L84.7963 275.696V275.544H74.0829V271.71H89.6492V275.598L80.4416 293.895H75.5995ZM100.693 294.198C99.0248 294.198 97.5407 293.927 96.2408 293.385C94.9481 292.837 93.9335 292.089 93.1969 291.143C92.4603 290.197 92.092 289.125 92.092 287.926C92.092 287.001 92.3014 286.153 92.7203 285.38C93.1463 284.6 93.7241 283.954 94.4535 283.441C95.1829 282.921 95.9989 282.589 96.9016 282.445V282.293C95.7173 282.055 94.7568 281.48 94.0202 280.571C93.2835 279.653 92.9152 278.588 92.9152 277.375C92.9152 276.227 93.2511 275.205 93.9227 274.309C94.5943 273.407 95.515 272.699 96.685 272.186C97.8621 271.666 99.1981 271.406 100.693 271.406C102.188 271.406 103.52 271.666 104.69 272.186C105.867 272.706 106.792 273.417 107.463 274.32C108.135 275.216 108.474 276.234 108.482 277.375C108.474 278.595 108.099 279.661 107.355 280.571C106.611 281.48 105.658 282.055 104.495 282.293V282.445C105.383 282.589 106.189 282.921 106.911 283.441C107.64 283.954 108.218 284.6 108.644 285.38C109.077 286.153 109.298 287.001 109.305 287.926C109.298 289.125 108.926 290.197 108.189 291.143C107.452 292.089 106.434 292.837 105.134 293.385C103.842 293.927 102.361 294.198 100.693 294.198ZM100.693 290.753C101.437 290.753 102.087 290.619 102.643 290.352C103.199 290.078 103.632 289.702 103.943 289.226C104.261 288.742 104.419 288.186 104.419 287.558C104.419 286.915 104.257 286.348 103.932 285.857C103.607 285.359 103.166 284.969 102.61 284.687C102.054 284.398 101.415 284.254 100.693 284.254C99.978 284.254 99.3389 284.398 98.7756 284.687C98.2123 284.969 97.7682 285.359 97.4432 285.857C97.1255 286.348 96.9666 286.915 96.9666 287.558C96.9666 288.186 97.1219 288.742 97.4324 289.226C97.7429 289.702 98.1798 290.078 98.7431 290.352C99.3064 290.619 99.9564 290.753 100.693 290.753ZM100.693 280.841C101.314 280.841 101.867 280.715 102.35 280.462C102.834 280.209 103.213 279.859 103.488 279.411C103.762 278.964 103.899 278.447 103.899 277.862C103.899 277.285 103.762 276.779 103.488 276.346C103.213 275.905 102.838 275.562 102.361 275.317C101.885 275.064 101.329 274.938 100.693 274.938C100.065 274.938 99.5086 275.064 99.0248 275.317C98.5409 275.562 98.1618 275.905 97.8874 276.346C97.6202 276.779 97.4866 277.285 97.4866 277.862C97.4866 278.447 97.6238 278.964 97.8982 279.411C98.1726 279.859 98.5518 280.209 99.0356 280.462C99.5195 280.715 100.072 280.841 100.693 280.841Z" fill="white"/>
<path d="M214.971 110.403C213.108 110.395 211.505 109.937 210.162 109.027C208.826 108.117 207.797 106.799 207.074 105.073C206.359 103.347 206.006 101.271 206.013 98.8442C206.013 96.4249 206.37 94.3632 207.085 92.6588C207.807 90.9545 208.837 89.6582 210.173 88.77C211.516 87.8745 213.115 87.4267 214.971 87.4267C216.827 87.4267 218.423 87.8745 219.759 88.77C221.103 89.6654 222.135 90.9654 222.857 92.6697C223.58 94.3668 223.937 96.4249 223.93 98.8442C223.93 101.278 223.569 103.358 222.847 105.084C222.132 106.81 221.106 108.128 219.77 109.038C218.434 109.948 216.835 110.403 214.971 110.403ZM214.971 106.514C216.242 106.514 217.257 105.875 218.015 104.596C218.774 103.318 219.149 101.401 219.142 98.8442C219.142 97.1616 218.969 95.7605 218.622 94.6412C218.282 93.5218 217.799 92.6805 217.17 92.1172C216.549 91.5539 215.816 91.2723 214.971 91.2723C213.708 91.2723 212.696 91.9042 211.938 93.168C211.18 94.4318 210.797 96.3238 210.79 98.8442C210.79 100.549 210.96 101.971 211.299 103.112C211.646 104.246 212.133 105.098 212.761 105.669C213.39 106.232 214.126 106.514 214.971 106.514Z" fill="white"/>
<path d="M91.5781 171.704C89.9099 171.704 88.4259 171.433 87.126 170.891C85.8333 170.342 84.8187 169.595 84.082 168.649C83.3454 167.703 82.9771 166.63 82.9771 165.432C82.9771 164.507 83.1866 163.659 83.6054 162.886C84.0315 162.106 84.6092 161.46 85.3386 160.947C86.068 160.427 86.8841 160.095 87.7868 159.95V159.799C86.6024 159.56 85.6419 158.986 84.9053 158.076C84.1687 157.159 83.8004 156.094 83.8004 154.881C83.8004 153.733 84.1362 152.711 84.8078 151.815C85.4794 150.912 86.4002 150.205 87.5701 149.692C88.7473 149.172 90.0833 148.912 91.5781 148.912C93.073 148.912 94.4054 149.172 95.5753 149.692C96.7525 150.212 97.6769 150.923 98.3485 151.826C99.0201 152.722 99.3595 153.74 99.3667 154.881C99.3595 156.101 98.984 157.166 98.2401 158.076C97.4963 158.986 96.5431 159.56 95.3804 159.799V159.95C96.2686 160.095 97.0738 160.427 97.796 160.947C98.5254 161.46 99.1031 162.106 99.5292 162.886C99.9625 163.659 100.183 164.507 100.19 165.432C100.183 166.63 99.8109 167.703 99.0743 168.649C98.3376 169.595 97.3194 170.342 96.0195 170.891C94.7268 171.433 93.2464 171.704 91.5781 171.704ZM91.5781 168.259C92.322 168.259 92.9719 168.125 93.528 167.858C94.0841 167.584 94.5174 167.208 94.8279 166.732C95.1457 166.248 95.3045 165.692 95.3045 165.063C95.3045 164.421 95.142 163.854 94.8171 163.363C94.4921 162.864 94.0516 162.474 93.4955 162.193C92.9394 161.904 92.3003 161.759 91.5781 161.759C90.8632 161.759 90.2241 161.904 89.6608 162.193C89.0975 162.474 88.6534 162.864 88.3284 163.363C88.0106 163.854 87.8518 164.421 87.8518 165.063C87.8518 165.692 88.007 166.248 88.3176 166.732C88.6281 167.208 89.065 167.584 89.6283 167.858C90.1916 168.125 90.8415 168.259 91.5781 168.259ZM91.5781 158.347C92.1992 158.347 92.7517 158.221 93.2355 157.968C93.7194 157.715 94.0985 157.365 94.3729 156.917C94.6474 156.47 94.7846 155.953 94.7846 155.368C94.7846 154.791 94.6474 154.285 94.3729 153.852C94.0985 153.411 93.723 153.068 93.2464 152.823C92.7697 152.57 92.2137 152.443 91.5781 152.443C90.9499 152.443 90.3938 152.57 89.9099 152.823C89.4261 153.068 89.047 153.411 88.7725 153.852C88.5053 154.285 88.3717 154.791 88.3717 155.368C88.3717 155.953 88.5089 156.47 88.7834 156.917C89.0578 157.365 89.4369 157.715 89.9208 157.968C90.4046 158.221 90.9571 158.347 91.5781 158.347Z" fill="white"/>
<path d="M23.8426 210.224V232.409H19.1521V214.676H19.0221L13.9416 217.861V213.701L19.4337 210.224H23.8426ZM37.8138 232.897C35.9506 232.889 34.3474 232.431 33.0042 231.521C31.6681 230.611 30.6391 229.293 29.9169 227.567C29.2019 225.841 28.8481 223.765 28.8553 221.338C28.8553 218.919 29.2128 216.857 29.9277 215.153C30.6499 213.449 31.679 212.152 33.015 211.264C34.3582 210.369 35.9578 209.921 37.8138 209.921C39.6698 209.921 41.2658 210.369 42.6018 211.264C43.945 212.16 44.9777 213.459 45.6999 215.164C46.422 216.861 46.7795 218.919 46.7723 221.338C46.7723 223.772 46.4112 225.852 45.689 227.578C44.9741 229.304 43.9486 230.622 42.6126 231.532C41.2766 232.442 39.677 232.897 37.8138 232.897ZM37.8138 229.008C39.0848 229.008 40.0995 228.369 40.8577 227.09C41.616 225.812 41.9915 223.895 41.9843 221.338C41.9843 219.656 41.811 218.255 41.4644 217.135C41.1249 216.016 40.6411 215.175 40.0128 214.611C39.3917 214.048 38.6587 213.766 37.8138 213.766C36.55 213.766 35.539 214.398 34.7807 215.662C34.0224 216.926 33.6397 218.818 33.6324 221.338C33.6324 223.043 33.8022 224.465 34.1416 225.606C34.4882 226.74 34.9757 227.592 35.604 228.163C36.2322 228.726 36.9689 229.008 37.8138 229.008Z" fill="white"/>
<path d="M206.273 293.895V290.515L214.17 283.203C214.841 282.553 215.405 281.968 215.86 281.448C216.322 280.928 216.672 280.419 216.91 279.921C217.149 279.415 217.268 278.87 217.268 278.285C217.268 277.635 217.12 277.075 216.824 276.606C216.528 276.129 216.123 275.765 215.61 275.512C215.098 275.252 214.516 275.122 213.866 275.122C213.188 275.122 212.595 275.259 212.09 275.533C211.584 275.808 211.194 276.201 210.92 276.714C210.646 277.227 210.508 277.837 210.508 278.545H206.056C206.056 277.093 206.385 275.833 207.042 274.764C207.699 273.695 208.62 272.869 209.804 272.284C210.989 271.699 212.353 271.406 213.899 271.406C215.488 271.406 216.871 271.688 218.048 272.251C219.232 272.807 220.153 273.58 220.81 274.569C221.467 275.559 221.796 276.692 221.796 277.971C221.796 278.808 221.63 279.635 221.298 280.451C220.973 281.267 220.391 282.174 219.553 283.17C218.716 284.16 217.535 285.348 216.011 286.734L212.772 289.908V290.06H222.088V293.895H206.273Z" fill="white"/>
<path d="M214.473 232.712C212.855 232.712 211.415 232.434 210.151 231.878C208.894 231.315 207.901 230.542 207.172 229.56C206.45 228.571 206.078 227.43 206.056 226.137H210.779C210.808 226.679 210.985 227.155 211.31 227.567C211.642 227.971 212.083 228.286 212.631 228.509C213.18 228.733 213.798 228.845 214.484 228.845C215.199 228.845 215.831 228.719 216.38 228.466C216.928 228.213 217.358 227.863 217.669 227.415C217.979 226.968 218.134 226.451 218.134 225.866C218.134 225.274 217.968 224.751 217.636 224.296C217.311 223.833 216.842 223.472 216.228 223.212C215.621 222.952 214.899 222.822 214.061 222.822H211.992V219.378H214.061C214.769 219.378 215.394 219.255 215.935 219.009C216.484 218.764 216.91 218.424 217.214 217.991C217.517 217.551 217.669 217.038 217.669 216.453C217.669 215.897 217.535 215.409 217.268 214.99C217.008 214.564 216.64 214.232 216.163 213.994C215.693 213.756 215.145 213.636 214.516 213.636C213.881 213.636 213.3 213.752 212.772 213.983C212.245 214.207 211.823 214.528 211.505 214.947C211.187 215.366 211.017 215.857 210.996 216.42H206.5C206.522 215.142 206.887 214.016 207.594 213.041C208.302 212.066 209.255 211.304 210.454 210.755C211.66 210.199 213.021 209.921 214.538 209.921C216.069 209.921 217.409 210.199 218.557 210.755C219.705 211.311 220.597 212.062 221.233 213.008C221.875 213.947 222.193 215.001 222.186 216.171C222.193 217.413 221.807 218.45 221.027 219.28C220.254 220.111 219.247 220.638 218.004 220.862V221.035C219.637 221.244 220.879 221.811 221.731 222.736C222.59 223.653 223.016 224.801 223.009 226.18C223.016 227.444 222.652 228.567 221.915 229.549C221.186 230.532 220.178 231.304 218.893 231.868C217.607 232.431 216.134 232.712 214.473 232.712Z" fill="white"/>
<path d="M82.9663 228.509V224.816L92.2281 210.224H95.4129V215.337H93.528L87.6893 224.577V224.751H100.851V228.509H82.9663ZM93.6147 232.409V227.383L93.7013 225.747V210.224H98.0993V232.409H93.6147Z" fill="white"/>
<path d="M147.766 210.224V232.409H143.076V214.676H142.946L137.865 217.861V213.701L143.358 210.224H147.766ZM153.039 232.409V229.029L160.936 221.717C161.608 221.068 162.171 220.483 162.626 219.963C163.088 219.443 163.438 218.934 163.677 218.435C163.915 217.93 164.034 217.384 164.034 216.8C164.034 216.15 163.886 215.59 163.59 215.12C163.294 214.644 162.889 214.279 162.377 214.026C161.864 213.766 161.283 213.636 160.633 213.636C159.954 213.636 159.362 213.774 158.856 214.048C158.351 214.322 157.961 214.716 157.686 215.229C157.412 215.742 157.275 216.352 157.275 217.059H152.822C152.822 215.608 153.151 214.348 153.808 213.279C154.465 212.21 155.386 211.383 156.571 210.798C157.755 210.213 159.12 209.921 160.665 209.921C162.254 209.921 163.637 210.203 164.814 210.766C165.998 211.322 166.919 212.095 167.576 213.084C168.234 214.073 168.562 215.207 168.562 216.485C168.562 217.323 168.396 218.15 168.064 218.966C167.739 219.782 167.157 220.688 166.32 221.685C165.482 222.674 164.301 223.862 162.778 225.249L159.539 228.423V228.574H168.855V232.409H153.039Z" fill="white"/>
<path d="M19.8349 271.406C20.9759 271.406 22.0736 271.598 23.1279 271.98C24.1895 272.363 25.1356 272.973 25.9661 273.811C26.8038 274.649 27.4646 275.761 27.9484 277.147C28.4395 278.527 28.6886 280.22 28.6959 282.228C28.6959 284.113 28.4828 285.795 28.0567 287.276C27.6379 288.749 27.0349 290.002 26.2477 291.035C25.4606 292.067 24.5109 292.855 23.3988 293.396C22.2866 293.931 21.0445 294.198 19.6724 294.198C18.1919 294.198 16.8848 293.913 15.751 293.342C14.6172 292.764 13.7037 291.981 13.0104 290.991C12.3243 289.995 11.9091 288.875 11.7646 287.633H16.3901C16.5707 288.442 16.9498 289.07 17.5275 289.518C18.1053 289.959 18.8202 290.179 19.6724 290.179C21.1167 290.179 22.2144 289.551 22.9655 288.294C23.7165 287.03 24.0957 285.301 24.1029 283.105H23.9512C23.619 283.755 23.1713 284.315 22.608 284.784C22.0447 285.247 21.3984 285.604 20.669 285.857C19.9468 286.11 19.1777 286.236 18.3616 286.236C17.0545 286.236 15.8882 285.929 14.8627 285.315C13.8373 284.701 13.0284 283.856 12.4362 282.78C11.8441 281.704 11.548 280.477 11.548 279.097C11.5408 277.61 11.8838 276.284 12.5771 275.122C13.2704 273.959 14.2381 273.049 15.4802 272.392C16.7295 271.728 18.1811 271.399 19.8349 271.406ZM19.8674 275.089C19.138 275.089 18.488 275.263 17.9175 275.609C17.3542 275.956 16.9065 276.422 16.5743 277.007C16.2493 277.592 16.0904 278.245 16.0976 278.967C16.0976 279.697 16.2565 280.354 16.5743 280.939C16.8992 281.517 17.3398 281.979 17.8958 282.325C18.4591 282.665 19.1019 282.835 19.824 282.835C20.3657 282.835 20.8676 282.733 21.3297 282.531C21.7919 282.329 22.1927 282.051 22.5322 281.697C22.8788 281.336 23.1496 280.921 23.3446 280.451C23.5396 279.982 23.6371 279.484 23.6371 278.956C23.6299 278.256 23.4638 277.613 23.1388 277.028C22.8138 276.443 22.3661 275.974 21.7955 275.62C21.225 275.266 20.5823 275.089 19.8674 275.089ZM39.9725 271.406C41.1135 271.406 42.2112 271.598 43.2656 271.98C44.3272 272.363 45.2732 272.973 46.1037 273.811C46.9414 274.649 47.6022 275.761 48.0861 277.147C48.5771 278.527 48.8263 280.22 48.8335 282.228C48.8335 284.113 48.6205 285.795 48.1944 287.276C47.7755 288.749 47.1725 290.002 46.3854 291.035C45.5982 292.067 44.6486 292.855 43.5364 293.396C42.4243 293.931 41.1821 294.198 39.81 294.198C38.3296 294.198 37.0225 293.913 35.8887 293.342C34.7549 292.764 33.8413 291.981 33.148 290.991C32.462 289.995 32.0467 288.875 31.9023 287.633H36.5278C36.7083 288.442 37.0875 289.07 37.6652 289.518C38.2429 289.959 38.9579 290.179 39.81 290.179C41.2544 290.179 42.3521 289.551 43.1031 288.294C43.8542 287.03 44.2333 285.301 44.2405 283.105H44.0889C43.7567 283.755 43.3089 284.315 42.7456 284.784C42.1823 285.247 41.536 285.604 40.8066 285.857C40.0845 286.11 39.3153 286.236 38.4993 286.236C37.1922 286.236 36.0259 285.929 35.0004 285.315C33.9749 284.701 33.1661 283.856 32.5739 282.78C31.9817 281.704 31.6856 280.477 31.6856 279.097C31.6784 277.61 32.0214 276.284 32.7147 275.122C33.408 273.959 34.3757 273.049 35.6178 272.392C36.8672 271.728 38.3187 271.399 39.9725 271.406ZM40.005 275.089C39.2756 275.089 38.6257 275.263 38.0552 275.609C37.4919 275.956 37.0441 276.422 36.7119 277.007C36.387 277.592 36.2281 278.245 36.2353 278.967C36.2353 279.697 36.3942 280.354 36.7119 280.939C37.0369 281.517 37.4774 281.979 38.0335 282.325C38.5968 282.665 39.2395 282.835 39.9617 282.835C40.5033 282.835 41.0052 282.733 41.4674 282.531C41.9296 282.329 42.3304 282.051 42.6698 281.697C43.0165 281.336 43.2873 280.921 43.4823 280.451C43.6772 279.982 43.7747 279.484 43.7747 278.956C43.7675 278.256 43.6014 277.613 43.2764 277.028C42.9515 276.443 42.5037 275.974 41.9332 275.62C41.3627 275.266 40.72 275.089 40.005 275.089Z" fill="white"/>
<path d="M146.617 171.4L155.814 153.202V153.05H145.1V149.215H160.667V153.104L151.459 171.4H146.617Z" fill="white"/>
<path d="M152.813 271.406C153.954 271.406 155.052 271.598 156.106 271.98C157.168 272.363 158.114 272.973 158.945 273.811C159.782 274.649 160.443 275.761 160.927 277.147C161.418 278.527 161.667 280.22 161.674 282.228C161.674 284.113 161.461 285.795 161.035 287.276C160.616 288.749 160.013 290.002 159.226 291.035C158.439 292.067 157.489 292.855 156.377 293.396C155.265 293.931 154.023 294.198 152.651 294.198C151.17 294.198 149.863 293.913 148.73 293.342C147.596 292.764 146.682 291.981 145.989 290.991C145.303 289.995 144.888 288.875 144.743 287.633H149.369C149.549 288.442 149.928 289.07 150.506 289.518C151.084 289.959 151.799 290.179 152.651 290.179C154.095 290.179 155.193 289.551 155.944 288.294C156.695 287.03 157.074 285.301 157.081 283.105H156.93C156.598 283.755 156.15 284.315 155.587 284.784C155.023 285.247 154.377 285.604 153.647 285.857C152.925 286.11 152.156 286.236 151.34 286.236C150.033 286.236 148.867 285.929 147.841 285.315C146.816 284.701 146.007 283.856 145.415 282.78C144.823 281.704 144.526 280.477 144.526 279.097C144.519 277.61 144.862 276.284 145.556 275.122C146.249 273.959 147.217 273.049 148.459 272.392C149.708 271.728 151.16 271.399 152.813 271.406ZM152.846 275.089C152.116 275.089 151.467 275.263 150.896 275.609C150.333 275.956 149.885 276.422 149.553 277.007C149.228 277.592 149.069 278.245 149.076 278.967C149.076 279.697 149.235 280.354 149.553 280.939C149.878 281.517 150.318 281.979 150.874 282.325C151.438 282.665 152.08 282.835 152.803 282.835C153.344 282.835 153.846 282.733 154.308 282.531C154.77 282.329 155.171 282.051 155.511 281.697C155.857 281.336 156.128 280.921 156.323 280.451C156.518 279.982 156.616 279.484 156.616 278.956C156.608 278.256 156.442 277.613 156.117 277.028C155.792 276.443 155.345 275.974 154.774 275.62C154.204 275.266 153.561 275.089 152.846 275.089Z" fill="white"/>
<path d="M138.992 109.915L148.189 91.7164V91.5648H137.475V87.73H153.042V91.6189L143.834 109.915H138.992ZM164.061 110.218C162.53 110.218 161.165 109.937 159.967 109.373C158.775 108.81 157.829 108.034 157.128 107.044C156.428 106.055 156.063 104.921 156.034 103.643H160.584C160.635 104.502 160.996 105.199 161.667 105.734C162.339 106.268 163.137 106.535 164.061 106.535C164.798 106.535 165.448 106.373 166.011 106.048C166.582 105.716 167.026 105.257 167.343 104.672C167.668 104.08 167.831 103.401 167.831 102.636C167.831 101.856 167.665 101.17 167.333 100.577C167.008 99.9852 166.556 99.523 165.979 99.1908C165.401 98.8586 164.74 98.6889 163.996 98.6817C163.346 98.6817 162.714 98.8153 162.101 99.0825C161.494 99.3497 161.021 99.7144 160.681 100.177L156.511 99.4292L157.562 87.73H171.124V91.5648H161.429L160.855 97.1218H160.985C161.375 96.573 161.963 96.118 162.75 95.7569C163.538 95.3959 164.419 95.2153 165.394 95.2153C166.73 95.2153 167.921 95.5295 168.968 96.1577C170.015 96.786 170.842 97.649 171.449 98.7467C172.056 99.8372 172.355 101.094 172.348 102.516C172.355 104.011 172.009 105.34 171.308 106.503C170.615 107.658 169.644 108.568 168.394 109.233C167.152 109.89 165.708 110.218 164.061 110.218Z" fill="white"/>
<path d="M204.463 171.227C202.846 171.227 201.405 170.949 200.141 170.393C198.885 169.83 197.892 169.057 197.162 168.075C196.44 167.086 196.068 165.944 196.046 164.652H200.769C200.798 165.193 200.975 165.67 201.3 166.082C201.632 166.486 202.073 166.8 202.622 167.024C203.171 167.248 203.788 167.36 204.474 167.36C205.189 167.36 205.821 167.234 206.37 166.981C206.919 166.728 207.348 166.378 207.659 165.93C207.969 165.482 208.125 164.966 208.125 164.381C208.125 163.789 207.959 163.265 207.626 162.81C207.301 162.348 206.832 161.987 206.218 161.727C205.612 161.467 204.889 161.337 204.052 161.337H201.983V157.892H204.052C204.759 157.892 205.384 157.77 205.926 157.524C206.474 157.278 206.901 156.939 207.204 156.506C207.507 156.065 207.659 155.552 207.659 154.968C207.659 154.411 207.525 153.924 207.258 153.505C206.998 153.079 206.63 152.747 206.153 152.509C205.684 152.27 205.135 152.151 204.507 152.151C203.871 152.151 203.29 152.267 202.763 152.498C202.235 152.722 201.813 153.043 201.495 153.462C201.177 153.881 201.008 154.372 200.986 154.935H196.491C196.512 153.657 196.877 152.53 197.585 151.555C198.292 150.58 199.246 149.818 200.444 149.27C201.65 148.714 203.012 148.436 204.528 148.436C206.059 148.436 207.399 148.714 208.547 149.27C209.695 149.826 210.587 150.577 211.223 151.523C211.865 152.462 212.183 153.516 212.176 154.686C212.183 155.928 211.797 156.964 211.017 157.795C210.244 158.625 209.237 159.152 207.995 159.376V159.55C209.627 159.759 210.869 160.326 211.721 161.25C212.58 162.168 213.007 163.316 212.999 164.695C213.007 165.959 212.642 167.082 211.905 168.064C211.176 169.046 210.168 169.819 208.883 170.382C207.597 170.945 206.124 171.227 204.463 171.227ZM216.371 170.924V167.544L224.268 160.232C224.939 159.582 225.503 158.997 225.958 158.477C226.42 157.957 226.77 157.448 227.008 156.95C227.247 156.444 227.366 155.899 227.366 155.314C227.366 154.664 227.218 154.105 226.922 153.635C226.626 153.158 226.221 152.794 225.709 152.541C225.196 152.281 224.614 152.151 223.965 152.151C223.286 152.151 222.693 152.288 222.188 152.563C221.682 152.837 221.292 153.231 221.018 153.743C220.744 154.256 220.606 154.866 220.606 155.574H216.154C216.154 154.123 216.483 152.862 217.14 151.794C217.797 150.725 218.718 149.898 219.902 149.313C221.087 148.728 222.452 148.436 223.997 148.436C225.586 148.436 226.969 148.717 228.146 149.28C229.33 149.837 230.251 150.609 230.908 151.599C231.565 152.588 231.894 153.722 231.894 155C231.894 155.838 231.728 156.665 231.396 157.481C231.071 158.297 230.489 159.203 229.652 160.2C228.814 161.189 227.633 162.377 226.109 163.764L222.87 166.937V167.089H232.186V170.924H216.371Z" fill="white"/>
<path d="M47.7062 337.582H42.9615C42.8749 336.968 42.6979 336.423 42.4307 335.946C42.1635 335.462 41.8205 335.051 41.4016 334.711C40.9828 334.372 40.4989 334.112 39.9501 333.931C39.4085 333.751 38.8199 333.661 38.1844 333.661C37.0361 333.661 36.0359 333.946 35.1838 334.516C34.3316 335.08 33.6708 335.903 33.2014 336.986C32.732 338.062 32.4973 339.369 32.4973 340.907C32.4973 342.489 32.732 343.818 33.2014 344.894C33.6781 345.97 34.3424 346.782 35.1946 347.331C36.0468 347.88 37.0325 348.154 38.1519 348.154C38.7802 348.154 39.3615 348.071 39.8959 347.905C40.4375 347.739 40.9178 347.497 41.3366 347.18C41.7555 346.855 42.1021 346.461 42.3766 345.999C42.6582 345.537 42.8532 345.009 42.9615 344.417L47.7062 344.439C47.5834 345.457 47.2765 346.439 46.7854 347.385C46.3015 348.324 45.648 349.165 44.8247 349.909C44.0087 350.646 43.0337 351.231 41.8999 351.664C40.7734 352.09 39.4987 352.303 38.0761 352.303C36.0973 352.303 34.328 351.856 32.7681 350.96C31.2155 350.065 29.9878 348.768 29.0851 347.071C28.1896 345.374 27.7418 343.32 27.7418 340.907C27.7418 338.488 28.1968 336.43 29.1067 334.733C30.0167 333.036 31.2516 331.743 32.8115 330.855C34.3713 329.959 36.1262 329.512 38.0761 329.512C39.3615 329.512 40.5531 329.692 41.6508 330.053C42.7557 330.414 43.7342 330.942 44.5864 331.635C45.4386 332.321 46.1318 333.162 46.6662 334.159C47.2079 335.155 47.5545 336.296 47.7062 337.582ZM58.5008 352.325C56.8181 352.325 55.363 351.968 54.1353 351.253C52.9148 350.53 51.9724 349.527 51.308 348.241C50.6436 346.948 50.3114 345.45 50.3114 343.746C50.3114 342.027 50.6436 340.525 51.308 339.239C51.9724 337.947 52.9148 336.943 54.1353 336.228C55.363 335.506 56.8181 335.145 58.5008 335.145C60.1834 335.145 61.635 335.506 62.8554 336.228C64.0831 336.943 65.0292 337.947 65.6936 339.239C66.358 340.525 66.6902 342.027 66.6902 343.746C66.6902 345.45 66.358 346.948 65.6936 348.241C65.0292 349.527 64.0831 350.53 62.8554 351.253C61.635 351.968 60.1834 352.325 58.5008 352.325ZM58.5224 348.75C59.2879 348.75 59.9271 348.534 60.4398 348.1C60.9525 347.66 61.3389 347.06 61.5989 346.302C61.8661 345.544 61.9997 344.681 61.9997 343.713C61.9997 342.745 61.8661 341.882 61.5989 341.124C61.3389 340.366 60.9525 339.766 60.4398 339.326C59.9271 338.885 59.2879 338.665 58.5224 338.665C57.7497 338.665 57.0998 338.885 56.5726 339.326C56.0526 339.766 55.659 340.366 55.3918 341.124C55.1319 341.882 55.0019 342.745 55.0019 343.713C55.0019 344.681 55.1319 345.544 55.3918 346.302C55.659 347.06 56.0526 347.66 56.5726 348.1C57.0998 348.534 57.7497 348.75 58.5224 348.75ZM69.6908 352V335.361H74.0888V338.297H74.2838C74.6304 337.322 75.2081 336.553 76.017 335.99C76.8258 335.426 77.7935 335.145 78.9201 335.145C80.0611 335.145 81.0324 335.43 81.834 336C82.6356 336.564 83.17 337.329 83.4372 338.297H83.6106C83.95 337.344 84.5638 336.582 85.4521 336.011C86.3476 335.433 87.4055 335.145 88.626 335.145C90.1787 335.145 91.4389 335.639 92.4066 336.629C93.3815 337.611 93.8689 339.005 93.8689 340.81V352H89.2651V341.72C89.2651 340.796 89.0196 340.102 88.5285 339.64C88.0374 339.178 87.4236 338.947 86.687 338.947C85.8493 338.947 85.1957 339.214 84.7263 339.748C84.2569 340.276 84.0222 340.972 84.0222 341.839V352H79.5484V341.622C79.5484 340.806 79.3137 340.156 78.8442 339.673C78.3821 339.189 77.7718 338.947 77.0135 338.947C76.5008 338.947 76.0386 339.077 75.627 339.337C75.2226 339.59 74.9012 339.947 74.6629 340.409C74.4246 340.864 74.3054 341.399 74.3054 342.012V352H69.6908ZM97.5141 358.24V335.361H102.064V338.156H102.27C102.472 337.708 102.764 337.253 103.147 336.791C103.537 336.322 104.042 335.932 104.664 335.621C105.292 335.303 106.072 335.145 107.003 335.145C108.217 335.145 109.336 335.462 110.361 336.098C111.387 336.726 112.207 337.676 112.82 338.947C113.434 340.211 113.741 341.796 113.741 343.702C113.741 345.558 113.442 347.125 112.842 348.404C112.25 349.675 111.441 350.639 110.416 351.296C109.397 351.946 108.256 352.271 106.993 352.271C106.097 352.271 105.335 352.123 104.707 351.827C104.086 351.531 103.577 351.159 103.179 350.711C102.782 350.256 102.479 349.797 102.27 349.335H102.129V358.24H97.5141ZM102.031 343.681C102.031 344.67 102.168 345.533 102.443 346.27C102.717 347.006 103.115 347.58 103.634 347.992C104.154 348.396 104.786 348.599 105.53 348.599C106.281 348.599 106.917 348.393 107.437 347.981C107.957 347.562 108.35 346.985 108.617 346.248C108.892 345.504 109.029 344.648 109.029 343.681C109.029 342.72 108.895 341.875 108.628 341.146C108.361 340.416 107.967 339.846 107.448 339.434C106.928 339.023 106.288 338.817 105.53 338.817C104.779 338.817 104.144 339.015 103.624 339.413C103.111 339.81 102.717 340.373 102.443 341.102C102.168 341.832 102.031 342.691 102.031 343.681ZM116.818 352V335.361H121.291V338.264H121.465C121.768 337.232 122.277 336.452 122.992 335.925C123.707 335.39 124.53 335.123 125.462 335.123C125.693 335.123 125.942 335.137 126.209 335.166C126.477 335.195 126.711 335.235 126.914 335.285V339.38C126.697 339.315 126.397 339.257 126.014 339.207C125.632 339.156 125.281 339.131 124.964 339.131C124.285 339.131 123.678 339.279 123.144 339.575C122.617 339.864 122.198 340.268 121.887 340.788C121.584 341.308 121.432 341.908 121.432 342.587V352H116.818ZM136.108 352.325C134.396 352.325 132.923 351.978 131.688 351.285C130.46 350.585 129.514 349.595 128.85 348.317C128.185 347.031 127.853 345.511 127.853 343.756C127.853 342.045 128.185 340.543 128.85 339.25C129.514 337.957 130.449 336.95 131.655 336.228C132.869 335.506 134.291 335.145 135.923 335.145C137.021 335.145 138.043 335.322 138.989 335.675C139.942 336.022 140.773 336.546 141.481 337.246C142.196 337.947 142.752 338.828 143.149 339.889C143.546 340.944 143.745 342.179 143.745 343.594V344.861H129.695V342.002H139.401C139.401 341.337 139.256 340.749 138.967 340.236C138.679 339.723 138.278 339.322 137.765 339.033C137.26 338.737 136.671 338.589 135.999 338.589C135.299 338.589 134.678 338.752 134.136 339.077C133.602 339.395 133.183 339.824 132.88 340.366C132.576 340.9 132.421 341.496 132.414 342.153V344.872C132.414 345.695 132.565 346.407 132.869 347.006C133.179 347.606 133.616 348.068 134.179 348.393C134.743 348.718 135.411 348.88 136.183 348.88C136.696 348.88 137.166 348.808 137.592 348.664C138.018 348.519 138.382 348.302 138.686 348.014C138.989 347.725 139.22 347.371 139.379 346.952L143.647 347.234C143.43 348.259 142.986 349.155 142.315 349.92C141.65 350.678 140.791 351.271 139.737 351.697C138.689 352.116 137.48 352.325 136.108 352.325ZM160.6 340.106L156.375 340.366C156.303 340.005 156.148 339.68 155.909 339.391C155.671 339.095 155.357 338.86 154.967 338.687C154.584 338.506 154.126 338.416 153.591 338.416C152.876 338.416 152.273 338.568 151.782 338.871C151.291 339.167 151.046 339.564 151.046 340.063C151.046 340.46 151.205 340.796 151.522 341.07C151.84 341.344 152.385 341.565 153.158 341.731L156.169 342.337C157.787 342.67 158.993 343.204 159.788 343.941C160.582 344.677 160.979 345.645 160.979 346.844C160.979 347.934 160.658 348.891 160.015 349.714C159.38 350.538 158.506 351.18 157.394 351.643C156.289 352.097 155.014 352.325 153.57 352.325C151.367 352.325 149.612 351.866 148.305 350.949C147.005 350.025 146.243 348.768 146.019 347.18L150.558 346.941C150.695 347.613 151.028 348.126 151.555 348.479C152.082 348.826 152.757 348.999 153.581 348.999C154.389 348.999 155.039 348.844 155.53 348.534C156.029 348.216 156.281 347.808 156.289 347.31C156.281 346.891 156.104 346.548 155.758 346.28C155.411 346.006 154.877 345.797 154.155 345.652L151.273 345.078C149.648 344.753 148.439 344.19 147.644 343.388C146.857 342.587 146.464 341.565 146.464 340.323C146.464 339.254 146.752 338.333 147.33 337.56C147.915 336.788 148.735 336.192 149.789 335.773C150.851 335.354 152.093 335.145 153.516 335.145C155.617 335.145 157.271 335.589 158.477 336.477C159.69 337.365 160.398 338.575 160.6 340.106ZM177.729 340.106L173.504 340.366C173.432 340.005 173.277 339.68 173.038 339.391C172.8 339.095 172.486 338.86 172.096 338.687C171.713 338.506 171.255 338.416 170.72 338.416C170.005 338.416 169.402 338.568 168.911 338.871C168.42 339.167 168.175 339.564 168.175 340.063C168.175 340.46 168.333 340.796 168.651 341.07C168.969 341.344 169.514 341.565 170.287 341.731L173.298 342.337C174.916 342.67 176.122 343.204 176.916 343.941C177.711 344.677 178.108 345.645 178.108 346.844C178.108 347.934 177.787 348.891 177.144 349.714C176.508 350.538 175.635 351.18 174.522 351.643C173.418 352.097 172.143 352.325 170.699 352.325C168.496 352.325 166.741 351.866 165.434 350.949C164.134 350.025 163.372 348.768 163.148 347.18L167.687 346.941C167.824 347.613 168.157 348.126 168.684 348.479C169.211 348.826 169.886 348.999 170.709 348.999C171.518 348.999 172.168 348.844 172.659 348.534C173.158 348.216 173.41 347.808 173.418 347.31C173.41 346.891 173.233 346.548 172.887 346.28C172.54 346.006 172.006 345.797 171.284 345.652L168.402 345.078C166.777 344.753 165.568 344.19 164.773 343.388C163.986 342.587 163.592 341.565 163.592 340.323C163.592 339.254 163.881 338.333 164.459 337.56C165.044 336.788 165.864 336.192 166.918 335.773C167.98 335.354 169.222 335.145 170.644 335.145C172.746 335.145 174.4 335.589 175.606 336.477C176.819 337.365 177.527 338.575 177.729 340.106ZM188.597 352.325C186.885 352.325 185.412 351.978 184.177 351.285C182.949 350.585 182.003 349.595 181.339 348.317C180.674 347.031 180.342 345.511 180.342 343.756C180.342 342.045 180.674 340.543 181.339 339.25C182.003 337.957 182.938 336.95 184.144 336.228C185.358 335.506 186.78 335.145 188.412 335.145C189.51 335.145 190.532 335.322 191.478 335.675C192.431 336.022 193.262 336.546 193.97 337.246C194.685 337.947 195.241 338.828 195.638 339.889C196.035 340.944 196.234 342.179 196.234 343.594V344.861H182.184V342.002H191.89C191.89 341.337 191.745 340.749 191.456 340.236C191.168 339.723 190.767 339.322 190.254 339.033C189.748 338.737 189.16 338.589 188.488 338.589C187.788 338.589 187.167 338.752 186.625 339.077C186.091 339.395 185.672 339.824 185.369 340.366C185.065 340.9 184.91 341.496 184.903 342.153V344.872C184.903 345.695 185.054 346.407 185.358 347.006C185.668 347.606 186.105 348.068 186.668 348.393C187.232 348.718 187.9 348.88 188.672 348.88C189.185 348.88 189.655 348.808 190.081 348.664C190.507 348.519 190.871 348.302 191.175 348.014C191.478 347.725 191.709 347.371 191.868 346.952L196.136 347.234C195.919 348.259 195.475 349.155 194.804 349.92C194.139 350.678 193.28 351.271 192.226 351.697C191.178 352.116 189.969 352.325 188.597 352.325ZM205.376 352.271C204.112 352.271 202.968 351.946 201.942 351.296C200.924 350.639 200.115 349.675 199.516 348.404C198.924 347.125 198.628 345.558 198.628 343.702C198.628 341.796 198.934 340.211 199.548 338.947C200.162 337.676 200.978 336.726 201.996 336.098C203.022 335.462 204.145 335.145 205.365 335.145C206.297 335.145 207.073 335.303 207.694 335.621C208.323 335.932 208.828 336.322 209.211 336.791C209.601 337.253 209.897 337.708 210.099 338.156H210.24V329.815H214.844V352H210.294V349.335H210.099C209.883 349.797 209.576 350.256 209.178 350.711C208.788 351.159 208.279 351.531 207.651 351.827C207.03 352.123 206.272 352.271 205.376 352.271ZM206.839 348.599C207.582 348.599 208.211 348.396 208.723 347.992C209.243 347.58 209.641 347.006 209.915 346.27C210.197 345.533 210.337 344.67 210.337 343.681C210.337 342.691 210.2 341.832 209.926 341.102C209.651 340.373 209.254 339.81 208.734 339.413C208.214 339.015 207.582 338.817 206.839 338.817C206.08 338.817 205.441 339.023 204.921 339.434C204.401 339.846 204.008 340.416 203.74 341.146C203.473 341.875 203.34 342.72 203.34 343.681C203.34 344.648 203.473 345.504 203.74 346.248C204.015 346.985 204.408 347.562 204.921 347.981C205.441 348.393 206.08 348.599 206.839 348.599ZM68.6007 389H60.7363V366.815H68.6657C70.8972 366.815 72.8182 367.259 74.4286 368.147C76.0391 369.028 77.2776 370.296 78.1442 371.95C79.018 373.603 79.4549 375.582 79.4549 377.886C79.4549 380.197 79.018 382.183 78.1442 383.844C77.2776 385.505 76.0319 386.779 74.407 387.668C72.7893 388.556 70.8539 389 68.6007 389ZM65.4268 384.981H68.4058C69.7923 384.981 70.9586 384.736 71.9047 384.245C72.8579 383.746 73.5729 382.977 74.0495 381.937C74.5334 380.89 74.7753 379.54 74.7753 377.886C74.7753 376.247 74.5334 374.907 74.0495 373.867C73.5729 372.827 72.8615 372.062 71.9155 371.57C70.9695 371.079 69.8032 370.834 68.4166 370.834H65.4268V384.981ZM82.8428 389V372.361H87.4575V389H82.8428ZM85.161 370.216C84.4749 370.216 83.8863 369.989 83.3953 369.534C82.9114 369.072 82.6695 368.519 82.6695 367.877C82.6695 367.241 82.9114 366.696 83.3953 366.241C83.8863 365.779 84.4749 365.548 85.161 365.548C85.847 365.548 86.432 365.779 86.9158 366.241C87.4069 366.696 87.6524 367.241 87.6524 367.877C87.6524 368.519 87.4069 369.072 86.9158 369.534C86.432 369.989 85.847 370.216 85.161 370.216ZM104.998 377.106L100.773 377.366C100.701 377.005 100.546 376.68 100.308 376.391C100.069 376.095 99.7551 375.86 99.3651 375.687C98.9824 375.506 98.5238 375.416 97.9894 375.416C97.2744 375.416 96.6714 375.568 96.1803 375.871C95.6893 376.167 95.4437 376.564 95.4437 377.063C95.4437 377.46 95.6026 377.796 95.9204 378.07C96.2381 378.344 96.7834 378.565 97.5561 378.731L100.568 379.337C102.185 379.67 103.391 380.204 104.186 380.941C104.98 381.677 105.377 382.645 105.377 383.844C105.377 384.934 105.056 385.891 104.413 386.714C103.778 387.538 102.904 388.18 101.792 388.643C100.687 389.097 99.412 389.325 97.9677 389.325C95.7651 389.325 94.0102 388.866 92.7031 387.949C91.4032 387.025 90.6413 385.768 90.4174 384.18L94.9563 383.941C95.0935 384.613 95.4257 385.126 95.9529 385.479C96.48 385.826 97.1553 385.999 97.9785 385.999C98.7874 385.999 99.4373 385.844 99.9284 385.534C100.427 385.216 100.679 384.808 100.687 384.31C100.679 383.891 100.503 383.548 100.156 383.28C99.8092 383.006 99.2748 382.797 98.5527 382.652L95.6712 382.078C94.0463 381.753 92.8367 381.19 92.0423 380.388C91.2552 379.587 90.8616 378.565 90.8616 377.323C90.8616 376.254 91.1504 375.333 91.7282 374.56C92.3131 373.788 93.1328 373.192 94.1872 372.773C95.2487 372.354 96.4909 372.145 97.9135 372.145C100.015 372.145 101.669 372.589 102.875 373.477C104.088 374.365 104.796 375.575 104.998 377.106ZM115.801 389.325C114.096 389.325 112.63 388.964 111.403 388.242C110.182 387.512 109.243 386.501 108.586 385.209C107.936 383.916 107.611 382.428 107.611 380.746C107.611 379.041 107.94 377.546 108.597 376.261C109.262 374.968 110.204 373.961 111.424 373.239C112.645 372.509 114.096 372.145 115.779 372.145C117.231 372.145 118.502 372.408 119.592 372.935C120.683 373.463 121.546 374.203 122.181 375.156C122.817 376.109 123.167 377.229 123.232 378.514H118.877C118.754 377.684 118.429 377.016 117.902 376.51C117.382 375.997 116.7 375.741 115.855 375.741C115.14 375.741 114.515 375.936 113.981 376.326C113.454 376.709 113.042 377.268 112.746 378.005C112.45 378.742 112.302 379.633 112.302 380.681C112.302 381.742 112.446 382.645 112.735 383.389C113.031 384.133 113.446 384.699 113.981 385.089C114.515 385.479 115.14 385.674 115.855 385.674C116.382 385.674 116.855 385.566 117.274 385.349C117.7 385.133 118.05 384.819 118.325 384.407C118.606 383.988 118.791 383.486 118.877 382.901H123.232C123.16 384.172 122.813 385.292 122.192 386.259C121.578 387.22 120.73 387.971 119.646 388.513C118.563 389.054 117.281 389.325 115.801 389.325ZM126.186 389V372.361H130.66V375.264H130.834C131.137 374.232 131.646 373.452 132.361 372.925C133.076 372.39 133.899 372.123 134.831 372.123C135.062 372.123 135.311 372.137 135.578 372.166C135.845 372.195 136.08 372.235 136.282 372.285V376.38C136.066 376.315 135.766 376.257 135.383 376.207C135 376.156 134.65 376.131 134.332 376.131C133.654 376.131 133.047 376.279 132.513 376.575C131.985 376.864 131.567 377.268 131.256 377.788C130.953 378.308 130.801 378.908 130.801 379.587V389H126.186ZM145.476 389.325C143.765 389.325 142.292 388.978 141.057 388.285C139.829 387.585 138.883 386.595 138.219 385.317C137.554 384.031 137.222 382.511 137.222 380.756C137.222 379.045 137.554 377.543 138.219 376.25C138.883 374.957 139.818 373.95 141.024 373.228C142.238 372.506 143.66 372.145 145.292 372.145C146.39 372.145 147.412 372.322 148.358 372.675C149.311 373.022 150.142 373.546 150.849 374.246C151.564 374.947 152.12 375.828 152.518 376.889C152.915 377.944 153.113 379.179 153.113 380.594V381.861H139.064V379.002H148.77C148.77 378.337 148.625 377.749 148.336 377.236C148.047 376.723 147.647 376.322 147.134 376.033C146.628 375.737 146.04 375.589 145.368 375.589C144.668 375.589 144.047 375.752 143.505 376.077C142.971 376.395 142.552 376.824 142.248 377.366C141.945 377.9 141.79 378.496 141.783 379.153V381.872C141.783 382.695 141.934 383.407 142.238 384.006C142.548 384.606 142.985 385.068 143.548 385.393C144.112 385.718 144.78 385.88 145.552 385.88C146.065 385.88 146.534 385.808 146.96 385.664C147.387 385.519 147.751 385.302 148.055 385.014C148.358 384.725 148.589 384.371 148.748 383.952L153.016 384.234C152.799 385.259 152.355 386.155 151.683 386.92C151.019 387.678 150.16 388.271 149.105 388.697C148.058 389.116 146.849 389.325 145.476 389.325ZM164.975 372.361V375.828H154.955V372.361H164.975ZM157.23 368.375H161.844V383.887C161.844 384.313 161.909 384.645 162.039 384.884C162.169 385.115 162.35 385.277 162.581 385.371C162.819 385.465 163.094 385.512 163.404 385.512C163.621 385.512 163.838 385.494 164.054 385.458C164.271 385.414 164.437 385.382 164.552 385.36L165.278 388.794C165.047 388.866 164.722 388.949 164.303 389.043C163.884 389.144 163.375 389.206 162.776 389.227C161.664 389.271 160.689 389.123 159.851 388.783C159.021 388.444 158.374 387.917 157.912 387.202C157.45 386.487 157.222 385.584 157.23 384.494V368.375ZM175.385 389.325C173.673 389.325 172.2 388.978 170.965 388.285C169.738 387.585 168.792 386.595 168.127 385.317C167.463 384.031 167.131 382.511 167.131 380.756C167.131 379.045 167.463 377.543 168.127 376.25C168.792 374.957 169.727 373.95 170.933 373.228C172.146 372.506 173.569 372.145 175.201 372.145C176.299 372.145 177.32 372.322 178.266 372.675C179.22 373.022 180.05 373.546 180.758 374.246C181.473 374.947 182.029 375.828 182.426 376.889C182.823 377.944 183.022 379.179 183.022 380.594V381.861H168.972V379.002H178.678C178.678 378.337 178.534 377.749 178.245 377.236C177.956 376.723 177.555 376.322 177.042 376.033C176.537 375.737 175.948 375.589 175.277 375.589C174.576 375.589 173.955 375.752 173.413 376.077C172.879 376.395 172.46 376.824 172.157 377.366C171.854 377.9 171.698 378.496 171.691 379.153V381.872C171.691 382.695 171.843 383.407 172.146 384.006C172.457 384.606 172.894 385.068 173.457 385.393C174.02 385.718 174.688 385.88 175.461 385.88C175.974 385.88 176.443 385.808 176.869 385.664C177.295 385.519 177.66 385.302 177.963 385.014C178.266 384.725 178.498 384.371 178.656 383.952L182.924 384.234C182.708 385.259 182.264 386.155 181.592 386.92C180.928 387.678 180.068 388.271 179.014 388.697C177.967 389.116 176.757 389.325 175.385 389.325ZM68.5452 407.682V403.815H86.7655V407.682H79.9735V426H75.3372V407.682H68.5452ZM94.7843 426.325C93.1016 426.325 91.6465 425.968 90.4188 425.253C89.1983 424.53 88.2559 423.527 87.5915 422.241C86.9271 420.948 86.5949 419.45 86.5949 417.746C86.5949 416.027 86.9271 414.525 87.5915 413.239C88.2559 411.947 89.1983 410.943 90.4188 410.228C91.6465 409.506 93.1016 409.145 94.7843 409.145C96.467 409.145 97.9185 409.506 99.139 410.228C100.367 410.943 101.313 411.947 101.977 413.239C102.641 414.525 102.974 416.027 102.974 417.746C102.974 419.45 102.641 420.948 101.977 422.241C101.313 423.527 100.367 424.53 99.139 425.253C97.9185 425.968 96.467 426.325 94.7843 426.325ZM94.806 422.75C95.5715 422.75 96.2106 422.534 96.7233 422.1C97.2361 421.66 97.6224 421.06 97.8824 420.302C98.1496 419.544 98.2832 418.681 98.2832 417.713C98.2832 416.745 98.1496 415.882 97.8824 415.124C97.6224 414.366 97.2361 413.766 96.7233 413.326C96.2106 412.885 95.5715 412.665 94.806 412.665C94.0332 412.665 93.3833 412.885 92.8561 413.326C92.3362 413.766 91.9426 414.366 91.6754 415.124C91.4154 415.882 91.2854 416.745 91.2854 417.713C91.2854 418.681 91.4154 419.544 91.6754 420.302C91.9426 421.06 92.3362 421.66 92.8561 422.1C93.3833 422.534 94.0332 422.75 94.806 422.75ZM110.156 421.212L110.166 415.677H110.838L116.168 409.361H121.465L114.305 417.724H113.21L110.156 421.212ZM105.974 426V403.815H110.589V426H105.974ZM116.374 426L111.477 418.753L114.554 415.492L121.779 426H116.374ZM130.626 426.325C128.915 426.325 127.442 425.978 126.207 425.285C124.979 424.585 124.033 423.595 123.369 422.317C122.704 421.031 122.372 419.511 122.372 417.756C122.372 416.045 122.704 414.543 123.369 413.25C124.033 411.957 124.968 410.95 126.174 410.228C127.387 409.506 128.81 409.145 130.442 409.145C131.54 409.145 132.562 409.322 133.508 409.675C134.461 410.022 135.292 410.546 135.999 411.246C136.714 411.947 137.27 412.828 137.668 413.889C138.065 414.944 138.263 416.179 138.263 417.594V418.861H124.214V416.002H133.919C133.919 415.337 133.775 414.749 133.486 414.236C133.197 413.723 132.797 413.322 132.284 413.033C131.778 412.737 131.19 412.589 130.518 412.589C129.818 412.589 129.197 412.752 128.655 413.077C128.12 413.395 127.702 413.824 127.398 414.366C127.095 414.9 126.94 415.496 126.933 416.153V418.872C126.933 419.695 127.084 420.407 127.387 421.006C127.698 421.606 128.135 422.068 128.698 422.393C129.261 422.718 129.93 422.88 130.702 422.88C131.215 422.88 131.684 422.808 132.11 422.664C132.537 422.519 132.901 422.302 133.205 422.014C133.508 421.725 133.739 421.371 133.898 420.952L138.166 421.234C137.949 422.259 137.505 423.155 136.833 423.92C136.169 424.678 135.31 425.271 134.255 425.697C133.208 426.116 131.999 426.325 130.626 426.325ZM145.889 416.381V426H141.275V409.361H145.673V412.297H145.868C146.236 411.329 146.854 410.564 147.72 410C148.587 409.43 149.637 409.145 150.872 409.145C152.028 409.145 153.035 409.397 153.895 409.903C154.754 410.408 155.422 411.131 155.899 412.069C156.375 413.001 156.614 414.113 156.614 415.406V426H151.999V416.229C152.006 415.211 151.746 414.416 151.219 413.846C150.692 413.268 149.966 412.979 149.042 412.979C148.421 412.979 147.872 413.113 147.395 413.38C146.926 413.647 146.557 414.037 146.29 414.55C146.03 415.056 145.897 415.666 145.889 416.381ZM174.095 414.106L169.87 414.366C169.798 414.005 169.642 413.68 169.404 413.391C169.166 413.095 168.852 412.86 168.462 412.687C168.079 412.506 167.62 412.416 167.086 412.416C166.371 412.416 165.768 412.568 165.277 412.871C164.786 413.167 164.54 413.564 164.54 414.063C164.54 414.46 164.699 414.796 165.017 415.07C165.335 415.344 165.88 415.565 166.653 415.731L169.664 416.337C171.282 416.67 172.488 417.204 173.282 417.941C174.077 418.677 174.474 419.645 174.474 420.844C174.474 421.934 174.152 422.891 173.51 423.714C172.874 424.538 172 425.18 170.888 425.643C169.783 426.097 168.509 426.325 167.064 426.325C164.862 426.325 163.107 425.866 161.8 424.949C160.5 424.025 159.738 422.768 159.514 421.18L164.053 420.941C164.19 421.613 164.522 422.126 165.049 422.479C165.577 422.826 166.252 422.999 167.075 422.999C167.884 422.999 168.534 422.844 169.025 422.534C169.523 422.216 169.776 421.808 169.783 421.31C169.776 420.891 169.599 420.548 169.252 420.28C168.906 420.006 168.371 419.797 167.649 419.652L164.768 419.078C163.143 418.753 161.933 418.19 161.139 417.388C160.352 416.587 159.958 415.565 159.958 414.323C159.958 413.254 160.247 412.333 160.825 411.56C161.41 410.788 162.229 410.192 163.284 409.773C164.345 409.354 165.587 409.145 167.01 409.145C169.112 409.145 170.765 409.589 171.971 410.477C173.185 411.365 173.892 412.575 174.095 414.106Z" fill="white"/>
<rect x="516" width="61.2471" height="61.2471" fill="#FBBF24"/>
<rect x="638.494" width="61.2471" height="61.2471" fill="#FBBF24"/>
<rect x="763" y="2" width="57.2471" height="57.2471" fill="#FFDB7E" stroke="black" stroke-width="4" stroke-dasharray="8 8"/>
<rect x="577.246" width="61.2471" height="61.2471" fill="#6D28D9"/>
<rect x="699.742" width="61.2471" height="61.2471" fill="#6D28D9"/>
<path d="M550.327 19.73V41.915H545.636V24.1822H545.506L540.426 27.367V23.2073L545.918 19.73H550.327Z" fill="white"/>
<path d="M610.264 42.2183C608.733 42.2183 607.368 41.9367 606.17 41.3734C604.978 40.8101 604.032 40.0338 603.331 39.0444C602.631 38.0551 602.266 36.9212 602.237 35.643H606.787C606.838 36.5024 607.199 37.1993 607.87 37.7337C608.542 38.2681 609.34 38.5353 610.264 38.5353C611.001 38.5353 611.651 38.3728 612.214 38.0478C612.785 37.7156 613.229 37.2571 613.546 36.6721C613.871 36.0799 614.034 35.4011 614.034 34.6356C614.034 33.8556 613.868 33.1696 613.536 32.5774C613.211 31.9852 612.759 31.523 612.182 31.1908C611.604 30.8586 610.943 30.6889 610.199 30.6817C609.549 30.6817 608.917 30.8153 608.304 31.0825C607.697 31.3497 607.224 31.7144 606.884 32.1766L602.714 31.4292L603.765 19.73H617.327V23.5648H607.632L607.058 29.1218H607.188C607.578 28.573 608.166 28.118 608.953 27.7569C609.741 27.3959 610.622 27.2153 611.597 27.2153C612.933 27.2153 614.124 27.5295 615.171 28.1577C616.218 28.786 617.045 29.649 617.652 30.7467C618.259 31.8372 618.558 33.0938 618.551 34.5164C618.558 36.0113 618.212 37.3401 617.511 38.5028C616.818 39.6583 615.847 40.5682 614.597 41.2326C613.355 41.8898 611.911 42.2183 610.264 42.2183Z" fill="white"/>
<path d="M788.806 35.1018V34.7335C788.813 33.4697 788.925 32.4622 789.142 31.7112C789.366 30.9601 789.691 30.3535 790.117 29.8913C790.543 29.4291 791.056 29.0103 791.655 28.6347C792.103 28.3459 792.504 28.0462 792.858 27.7356C793.211 27.4251 793.493 27.0821 793.703 26.7066C793.912 26.3238 794.017 25.8977 794.017 25.4283C794.017 24.93 793.898 24.4931 793.659 24.1176C793.421 23.7421 793.1 23.4532 792.695 23.251C792.298 23.0488 791.857 22.9477 791.374 22.9477C790.904 22.9477 790.46 23.0524 790.041 23.2618C789.622 23.464 789.279 23.7673 789.012 24.1718C788.745 24.5689 788.6 25.0636 788.579 25.6558H784.159C784.195 24.2115 784.542 23.0199 785.199 22.0811C785.856 21.135 786.726 20.4309 787.81 19.9687C788.893 19.4993 790.088 19.2646 791.395 19.2646C792.832 19.2646 794.103 19.5029 795.208 19.9796C796.313 20.449 797.18 21.1314 797.808 22.0269C798.436 22.9224 798.75 24.002 798.75 25.2658C798.75 26.1108 798.61 26.8618 798.328 27.519C798.054 28.1689 797.667 28.7467 797.169 29.2522C796.671 29.7505 796.082 30.2019 795.403 30.6063C794.833 30.9457 794.363 31.2995 793.995 31.6679C793.634 32.0362 793.363 32.4622 793.183 32.9461C793.009 33.4299 792.919 34.0257 792.912 34.7335V35.1018H788.806ZM790.951 42.0346C790.229 42.0346 789.611 41.7818 789.099 41.2763C788.593 40.7636 788.344 40.1497 788.351 39.4348C788.344 38.727 788.593 38.1204 789.099 37.6149C789.611 37.1094 790.229 36.8566 790.951 36.8566C791.637 36.8566 792.24 37.1094 792.76 37.6149C793.28 38.1204 793.544 38.727 793.551 39.4348C793.544 39.9114 793.417 40.3483 793.172 40.7455C792.933 41.1355 792.619 41.4496 792.229 41.6879C791.839 41.919 791.413 42.0346 790.951 42.0346Z" fill="black" fill-opacity="0.8"/>
<path d="M730.971 42.4025C729.108 42.3953 727.505 41.9367 726.162 41.0268C724.826 40.1168 723.797 38.7989 723.074 37.0729C722.359 35.3469 722.006 33.2707 722.013 30.8442C722.013 28.4249 722.37 26.3632 723.085 24.6588C723.807 22.9545 724.837 21.6582 726.173 20.77C727.516 19.8745 729.115 19.4267 730.971 19.4267C732.827 19.4267 734.423 19.8745 735.759 20.77C737.103 21.6654 738.135 22.9654 738.857 24.6697C739.58 26.3668 739.937 28.4249 739.93 30.8442C739.93 33.2779 739.569 35.3578 738.847 37.0837C738.132 38.8097 737.106 40.1277 735.77 41.0376C734.434 41.9475 732.835 42.4025 730.971 42.4025ZM730.971 38.5136C732.242 38.5136 733.257 37.8745 734.015 36.5963C734.774 35.318 735.149 33.4007 735.142 30.8442C735.142 29.1616 734.969 27.7605 734.622 26.6412C734.282 25.5218 733.799 24.6805 733.17 24.1172C732.549 23.5539 731.816 23.2723 730.971 23.2723C729.708 23.2723 728.696 23.9042 727.938 25.168C727.18 26.4318 726.797 28.3238 726.79 30.8442C726.79 32.5485 726.96 33.9712 727.299 35.1122C727.646 36.246 728.133 37.0982 728.761 37.6687C729.39 38.232 730.126 38.5136 730.971 38.5136Z" fill="white"/>
<path d="M654.992 41.915L664.189 23.7164V23.5648H653.475V19.73H669.042V23.6189L659.834 41.915H654.992ZM680.061 42.2183C678.53 42.2183 677.165 41.9367 675.967 41.3734C674.775 40.8101 673.829 40.0338 673.128 39.0444C672.428 38.0551 672.063 36.9212 672.034 35.643H676.584C676.635 36.5024 676.996 37.1993 677.667 37.7337C678.339 38.2681 679.137 38.5353 680.061 38.5353C680.798 38.5353 681.448 38.3728 682.011 38.0478C682.582 37.7156 683.026 37.2571 683.343 36.6721C683.668 36.0799 683.831 35.4011 683.831 34.6356C683.831 33.8556 683.665 33.1696 683.333 32.5774C683.008 31.9852 682.556 31.523 681.979 31.1908C681.401 30.8586 680.74 30.6889 679.996 30.6817C679.346 30.6817 678.714 30.8153 678.101 31.0825C677.494 31.3497 677.021 31.7144 676.681 32.1766L672.511 31.4292L673.562 19.73H687.124V23.5648H677.429L676.855 29.1218H676.985C677.375 28.573 677.963 28.118 678.75 27.7569C679.538 27.3959 680.419 27.2153 681.394 27.2153C682.73 27.2153 683.921 27.5295 684.968 28.1577C686.015 28.786 686.842 29.649 687.449 30.7467C688.056 31.8372 688.355 33.0938 688.348 34.5164C688.355 36.0113 688.009 37.3401 687.308 38.5028C686.615 39.6583 685.644 40.5682 684.394 41.2326C683.152 41.8898 681.708 42.2183 680.061 42.2183Z" fill="white"/>
<rect x="577" y="304" width="61.2471" height="61.2471" fill="#FBBF24"/>
<rect x="699.494" y="304" width="61.2471" height="61.2471" fill="#FBBF24"/>
<rect x="638.246" y="304" width="61.2471" height="61.2471" fill="#6D28D9"/>
<rect x="760.742" y="304" width="61.2471" height="61.2471" fill="#6D28D9"/>
<path d="M611.327 323.73V345.915H606.636V328.182H606.506L601.426 331.367V327.207L606.918 323.73H611.327Z" fill="white"/>
<path d="M671.264 346.218C669.733 346.218 668.368 345.937 667.17 345.373C665.978 344.81 665.032 344.034 664.331 343.044C663.631 342.055 663.266 340.921 663.237 339.643H667.787C667.838 340.502 668.199 341.199 668.87 341.734C669.542 342.268 670.34 342.535 671.264 342.535C672.001 342.535 672.651 342.373 673.214 342.048C673.785 341.716 674.229 341.257 674.546 340.672C674.871 340.08 675.034 339.401 675.034 338.636C675.034 337.856 674.868 337.17 674.536 336.577C674.211 335.985 673.759 335.523 673.182 335.191C672.604 334.859 671.943 334.689 671.199 334.682C670.549 334.682 669.917 334.815 669.304 335.083C668.697 335.35 668.224 335.714 667.884 336.177L663.714 335.429L664.765 323.73H678.327V327.565H668.632L668.058 333.122H668.188C668.578 332.573 669.166 332.118 669.953 331.757C670.741 331.396 671.622 331.215 672.597 331.215C673.933 331.215 675.124 331.529 676.171 332.158C677.218 332.786 678.045 333.649 678.652 334.747C679.259 335.837 679.558 337.094 679.551 338.516C679.558 340.011 679.212 341.34 678.511 342.503C677.818 343.658 676.847 344.568 675.597 345.233C674.355 345.89 672.911 346.218 671.264 346.218Z" fill="white"/>
<path d="M791.971 346.403C790.108 346.395 788.505 345.937 787.162 345.027C785.826 344.117 784.797 342.799 784.074 341.073C783.359 339.347 783.006 337.271 783.013 334.844C783.013 332.425 783.37 330.363 784.085 328.659C784.807 326.955 785.837 325.658 787.173 324.77C788.516 323.874 790.115 323.427 791.971 323.427C793.827 323.427 795.423 323.874 796.759 324.77C798.103 325.665 799.135 326.965 799.857 328.67C800.58 330.367 800.937 332.425 800.93 334.844C800.93 337.278 800.569 339.358 799.847 341.084C799.132 342.81 798.106 344.128 796.77 345.038C795.434 345.948 793.835 346.403 791.971 346.403ZM791.971 342.514C793.242 342.514 794.257 341.875 795.015 340.596C795.774 339.318 796.149 337.401 796.142 334.844C796.142 333.162 795.969 331.761 795.622 330.641C795.282 329.522 794.799 328.68 794.17 328.117C793.549 327.554 792.816 327.272 791.971 327.272C790.708 327.272 789.696 327.904 788.938 329.168C788.18 330.432 787.797 332.324 787.79 334.844C787.79 336.549 787.96 337.971 788.299 339.112C788.646 340.246 789.133 341.098 789.761 341.669C790.39 342.232 791.126 342.514 791.971 342.514Z" fill="white"/>
<rect x="515" y="304" width="61.2471" height="61.2471" fill="#6D28D9"/>
<path d="M547.963 330.195C547.876 329.322 547.505 328.643 546.847 328.159C546.19 327.675 545.298 327.433 544.172 327.433C543.406 327.433 542.76 327.541 542.233 327.758C541.706 327.967 541.301 328.26 541.019 328.635C540.745 329.011 540.608 329.437 540.608 329.914C540.593 330.311 540.676 330.658 540.857 330.954C541.045 331.25 541.301 331.506 541.626 331.723C541.951 331.932 542.327 332.116 542.753 332.275C543.179 332.427 543.634 332.557 544.118 332.665L546.111 333.142C547.078 333.358 547.967 333.647 548.776 334.008C549.584 334.369 550.285 334.814 550.877 335.341C551.469 335.868 551.928 336.489 552.253 337.204C552.585 337.919 552.755 338.739 552.762 339.663C552.755 341.021 552.408 342.198 551.722 343.194C551.043 344.184 550.061 344.953 548.776 345.502C547.497 346.043 545.955 346.314 544.15 346.314C542.359 346.314 540.799 346.04 539.47 345.491C538.149 344.942 537.116 344.13 536.372 343.054C535.636 341.97 535.249 340.631 535.213 339.035H539.752C539.803 339.779 540.016 340.4 540.391 340.898C540.774 341.389 541.283 341.761 541.919 342.014C542.561 342.259 543.287 342.382 544.096 342.382C544.89 342.382 545.58 342.266 546.165 342.035C546.757 341.804 547.216 341.483 547.541 341.071C547.866 340.66 548.028 340.187 548.028 339.652C548.028 339.154 547.88 338.735 547.584 338.396C547.295 338.056 546.869 337.767 546.306 337.529C545.75 337.291 545.067 337.074 544.258 336.879L541.843 336.272C539.972 335.817 538.495 335.106 537.412 334.138C536.329 333.171 535.791 331.867 535.798 330.228C535.791 328.885 536.148 327.711 536.871 326.707C537.6 325.703 538.6 324.92 539.871 324.357C541.142 323.793 542.587 323.512 544.204 323.512C545.851 323.512 547.288 323.793 548.516 324.357C549.75 324.92 550.711 325.703 551.397 326.707C552.083 327.711 552.437 328.874 552.459 330.195H547.963Z" fill="white"/>
<path d="M715.992 345.915L725.189 327.716V327.565H714.475V323.73H730.042V327.619L720.834 345.915H715.992ZM741.061 346.218C739.53 346.218 738.165 345.937 736.967 345.373C735.775 344.81 734.829 344.034 734.128 343.044C733.428 342.055 733.063 340.921 733.034 339.643H737.584C737.635 340.502 737.996 341.199 738.667 341.734C739.339 342.268 740.137 342.535 741.061 342.535C741.798 342.535 742.448 342.373 743.011 342.048C743.582 341.716 744.026 341.257 744.343 340.672C744.668 340.08 744.831 339.401 744.831 338.636C744.831 337.856 744.665 337.17 744.333 336.577C744.008 335.985 743.556 335.523 742.979 335.191C742.401 334.859 741.74 334.689 740.996 334.682C740.346 334.682 739.714 334.815 739.101 335.083C738.494 335.35 738.021 335.714 737.681 336.177L733.511 335.429L734.562 323.73H748.124V327.565H738.429L737.855 333.122H737.985C738.375 332.573 738.963 332.118 739.75 331.757C740.538 331.396 741.419 331.215 742.394 331.215C743.73 331.215 744.921 331.529 745.968 332.158C747.015 332.786 747.842 333.649 748.449 334.747C749.056 335.837 749.355 337.094 749.348 338.516C749.355 340.011 749.009 341.34 748.308 342.503C747.615 343.658 746.644 344.568 745.394 345.233C744.152 345.89 742.708 346.218 741.061 346.218Z" fill="white"/>
<rect x="516" y="76" width="314" height="213" rx="16" fill="#9747FF"/>
<path d="M643.686 175.713C643.39 174.684 642.975 173.776 642.44 172.987C641.904 172.184 641.249 171.508 640.474 170.958C639.714 170.395 638.84 169.965 637.854 169.669C636.882 169.373 635.804 169.226 634.621 169.226C632.409 169.226 630.465 169.775 628.789 170.874C627.127 171.973 625.831 173.571 624.901 175.67C623.971 177.755 623.506 180.305 623.506 183.32C623.506 186.334 623.964 188.898 624.88 191.011C625.796 193.124 627.092 194.737 628.768 195.85C630.444 196.949 632.424 197.499 634.706 197.499C636.776 197.499 638.544 197.132 640.01 196.4C641.489 195.653 642.616 194.604 643.39 193.251C644.179 191.899 644.574 190.3 644.574 188.455L646.433 188.729H635.276V181.841H653.385V187.292C653.385 191.096 652.582 194.364 650.976 197.097C649.37 199.816 647.159 201.915 644.341 203.394C641.524 204.859 638.298 205.592 634.663 205.592C630.606 205.592 627.042 204.697 623.971 202.908C620.9 201.105 618.505 198.548 616.787 195.238C615.082 191.913 614.23 187.969 614.23 183.404C614.23 179.897 614.737 176.769 615.751 174.022C616.78 171.261 618.217 168.923 620.062 167.007C621.907 165.091 624.056 163.633 626.507 162.633C628.958 161.633 631.614 161.132 634.473 161.132C636.924 161.132 639.207 161.492 641.32 162.21C643.433 162.914 645.306 163.915 646.94 165.211C648.589 166.507 649.934 168.049 650.976 169.838C652.019 171.613 652.688 173.571 652.984 175.713H643.686ZM660.258 205V161.724H677.332C680.614 161.724 683.41 162.351 685.721 163.605C688.031 164.844 689.792 166.57 691.003 168.782C692.229 170.979 692.842 173.515 692.842 176.389C692.842 179.263 692.222 181.798 690.982 183.996C689.743 186.194 687.947 187.905 685.594 189.131C683.255 190.356 680.424 190.969 677.099 190.969H666.217V183.637H675.62C677.381 183.637 678.832 183.334 679.973 182.728C681.128 182.108 681.988 181.256 682.551 180.171C683.129 179.072 683.417 177.812 683.417 176.389C683.417 174.952 683.129 173.698 682.551 172.628C681.988 171.543 681.128 170.705 679.973 170.113C678.818 169.507 677.353 169.204 675.578 169.204H669.408V205H660.258ZM697.137 169.268V161.724H732.679V169.268H719.43V205H710.386V169.268H697.137Z" fill="white"/>
<path d="M522.283 401.682V397.815H540.503V401.682H533.711V420H529.075V401.682H522.283ZM541.689 420V403.361H546.163V406.264H546.336C546.64 405.232 547.149 404.452 547.864 403.925C548.579 403.39 549.402 403.123 550.334 403.123C550.565 403.123 550.814 403.137 551.081 403.166C551.348 403.195 551.583 403.235 551.785 403.285V407.38C551.568 407.315 551.269 407.257 550.886 407.207C550.503 407.156 550.153 407.131 549.835 407.131C549.156 407.131 548.55 407.279 548.015 407.575C547.488 407.864 547.069 408.268 546.759 408.788C546.456 409.308 546.304 409.908 546.304 410.587V420H541.689ZM558.439 420.314C557.377 420.314 556.431 420.13 555.601 419.762C554.77 419.386 554.113 418.834 553.629 418.104C553.153 417.368 552.914 416.451 552.914 415.353C552.914 414.428 553.084 413.652 553.424 413.024C553.763 412.396 554.225 411.89 554.81 411.507C555.395 411.125 556.059 410.836 556.803 410.641C557.554 410.446 558.341 410.309 559.165 410.229C560.132 410.128 560.912 410.034 561.505 409.947C562.097 409.854 562.526 409.716 562.794 409.536C563.061 409.355 563.194 409.088 563.194 408.734V408.669C563.194 407.983 562.978 407.452 562.545 407.077C562.118 406.701 561.512 406.514 560.725 406.514C559.894 406.514 559.233 406.698 558.742 407.066C558.251 407.427 557.926 407.882 557.767 408.431L553.499 408.084C553.716 407.073 554.142 406.199 554.778 405.463C555.413 404.719 556.233 404.148 557.237 403.751C558.248 403.347 559.418 403.145 560.746 403.145C561.671 403.145 562.555 403.253 563.4 403.47C564.252 403.686 565.007 404.022 565.664 404.477C566.329 404.932 566.852 405.517 567.235 406.232C567.618 406.94 567.809 407.788 567.809 408.778V420H563.433V417.693H563.303C563.036 418.213 562.678 418.671 562.23 419.068C561.783 419.458 561.245 419.765 560.616 419.989C559.988 420.206 559.262 420.314 558.439 420.314ZM559.761 417.129C560.439 417.129 561.039 416.996 561.559 416.729C562.079 416.454 562.487 416.086 562.783 415.624C563.079 415.161 563.227 414.638 563.227 414.053V412.287C563.083 412.381 562.884 412.468 562.631 412.547C562.386 412.619 562.108 412.688 561.797 412.753C561.487 412.811 561.176 412.865 560.865 412.916C560.555 412.959 560.273 412.999 560.021 413.035C559.479 413.114 559.006 413.241 558.601 413.414C558.197 413.587 557.883 413.822 557.659 414.118C557.435 414.407 557.323 414.768 557.323 415.201C557.323 415.829 557.551 416.31 558.006 416.642C558.468 416.967 559.053 417.129 559.761 417.129ZM571.389 420V403.361H576.004V420H571.389ZM573.707 401.216C573.021 401.216 572.433 400.989 571.942 400.534C571.458 400.072 571.216 399.519 571.216 398.877C571.216 398.241 571.458 397.696 571.942 397.241C572.433 396.779 573.021 396.548 573.707 396.548C574.393 396.548 574.978 396.779 575.462 397.241C575.953 397.696 576.199 398.241 576.199 398.877C576.199 399.519 575.953 400.072 575.462 400.534C574.978 400.989 574.393 401.216 573.707 401.216ZM584.315 410.381V420H579.701V403.361H584.099V406.297H584.294C584.662 405.329 585.279 404.564 586.146 404C587.012 403.43 588.063 403.145 589.298 403.145C590.454 403.145 591.461 403.397 592.32 403.903C593.18 404.408 593.848 405.131 594.324 406.069C594.801 407.001 595.039 408.113 595.039 409.406V420H590.425V410.229C590.432 409.211 590.172 408.416 589.645 407.846C589.118 407.268 588.392 406.979 587.467 406.979C586.846 406.979 586.298 407.113 585.821 407.38C585.351 407.647 584.983 408.037 584.716 408.55C584.456 409.056 584.322 409.666 584.315 410.381ZM605.736 420V403.361H610.351V420H605.736ZM608.055 401.216C607.369 401.216 606.78 400.989 606.289 400.534C605.805 400.072 605.563 399.519 605.563 398.877C605.563 398.241 605.805 397.696 606.289 397.241C606.78 396.779 607.369 396.548 608.055 396.548C608.741 396.548 609.326 396.779 609.81 397.241C610.301 397.696 610.546 398.241 610.546 398.877C610.546 399.519 610.301 400.072 609.81 400.534C609.326 400.989 608.741 401.216 608.055 401.216ZM618.662 410.381V420H614.048V403.361H618.446V406.297H618.641C619.009 405.329 619.626 404.564 620.493 404C621.36 403.43 622.41 403.145 623.645 403.145C624.801 403.145 625.808 403.397 626.668 403.903C627.527 404.408 628.195 405.131 628.672 406.069C629.148 407.001 629.387 408.113 629.387 409.406V420H624.772V410.229C624.779 409.211 624.519 408.416 623.992 407.846C623.465 407.268 622.739 406.979 621.815 406.979C621.194 406.979 620.645 407.113 620.168 407.38C619.699 407.647 619.33 408.037 619.063 408.55C618.803 409.056 618.67 409.666 618.662 410.381ZM647.601 420.325C645.897 420.325 644.431 419.964 643.203 419.242C641.983 418.512 641.044 417.501 640.387 416.209C639.737 414.916 639.412 413.428 639.412 411.746C639.412 410.041 639.741 408.546 640.398 407.261C641.062 405.968 642.005 404.961 643.225 404.239C644.446 403.509 645.897 403.145 647.58 403.145C649.031 403.145 650.302 403.408 651.393 403.935C652.483 404.463 653.346 405.203 653.982 406.156C654.617 407.109 654.968 408.229 655.033 409.514H650.678C650.555 408.684 650.23 408.016 649.703 407.51C649.183 406.997 648.501 406.741 647.656 406.741C646.941 406.741 646.316 406.936 645.782 407.326C645.254 407.709 644.843 408.268 644.547 409.005C644.251 409.742 644.103 410.633 644.103 411.681C644.103 412.742 644.247 413.645 644.536 414.389C644.832 415.133 645.247 415.699 645.782 416.089C646.316 416.479 646.941 416.674 647.656 416.674C648.183 416.674 648.656 416.566 649.075 416.349C649.501 416.133 649.851 415.819 650.125 415.407C650.407 414.988 650.591 414.486 650.678 413.901H655.033C654.96 415.172 654.614 416.292 653.993 417.259C653.379 418.22 652.53 418.971 651.447 419.513C650.364 420.054 649.082 420.325 647.601 420.325ZM665.505 420.325C663.822 420.325 662.367 419.968 661.139 419.253C659.919 418.53 658.976 417.527 658.312 416.241C657.648 414.948 657.316 413.45 657.316 411.746C657.316 410.027 657.648 408.525 658.312 407.239C658.976 405.947 659.919 404.943 661.139 404.228C662.367 403.506 663.822 403.145 665.505 403.145C667.188 403.145 668.639 403.506 669.86 404.228C671.087 404.943 672.033 405.947 672.698 407.239C673.362 408.525 673.694 410.027 673.694 411.746C673.694 413.45 673.362 414.948 672.698 416.241C672.033 417.527 671.087 418.53 669.86 419.253C668.639 419.968 667.188 420.325 665.505 420.325ZM665.527 416.75C666.292 416.75 666.931 416.534 667.444 416.1C667.957 415.66 668.343 415.06 668.603 414.302C668.87 413.544 669.004 412.681 669.004 411.713C669.004 410.745 668.87 409.882 668.603 409.124C668.343 408.366 667.957 407.766 667.444 407.326C666.931 406.885 666.292 406.665 665.527 406.665C664.754 406.665 664.104 406.885 663.577 407.326C663.057 407.766 662.663 408.366 662.396 409.124C662.136 409.882 662.006 410.745 662.006 411.713C662.006 412.681 662.136 413.544 662.396 414.302C662.663 415.06 663.057 415.66 663.577 416.1C664.104 416.534 664.754 416.75 665.527 416.75ZM676.695 420V403.361H681.093V406.297H681.288C681.635 405.322 682.212 404.553 683.021 403.99C683.83 403.426 684.798 403.145 685.924 403.145C687.065 403.145 688.037 403.43 688.838 404C689.64 404.564 690.174 405.329 690.441 406.297H690.615C690.954 405.344 691.568 404.582 692.456 404.011C693.352 403.433 694.41 403.145 695.63 403.145C697.183 403.145 698.443 403.639 699.411 404.629C700.386 405.611 700.873 407.005 700.873 408.81V420H696.269V409.72C696.269 408.796 696.024 408.102 695.533 407.64C695.042 407.178 694.428 406.947 693.691 406.947C692.853 406.947 692.2 407.214 691.73 407.748C691.261 408.276 691.026 408.972 691.026 409.839V420H686.552V409.622C686.552 408.806 686.318 408.156 685.848 407.673C685.386 407.189 684.776 406.947 684.018 406.947C683.505 406.947 683.043 407.077 682.631 407.337C682.227 407.59 681.905 407.947 681.667 408.409C681.429 408.864 681.31 409.399 681.31 410.012V420H676.695ZM704.518 426.24V403.361H709.068V406.156H709.274C709.476 405.708 709.768 405.253 710.151 404.791C710.541 404.322 711.047 403.932 711.668 403.621C712.296 403.303 713.076 403.145 714.008 403.145C715.221 403.145 716.34 403.462 717.366 404.098C718.391 404.726 719.211 405.676 719.825 406.947C720.438 408.211 720.745 409.796 720.745 411.702C720.745 413.558 720.446 415.125 719.846 416.404C719.254 417.675 718.445 418.639 717.42 419.296C716.401 419.946 715.26 420.271 713.997 420.271C713.101 420.271 712.339 420.123 711.711 419.827C711.09 419.531 710.581 419.159 710.184 418.711C709.786 418.256 709.483 417.797 709.274 417.335H709.133V426.24H704.518ZM709.035 411.681C709.035 412.67 709.173 413.533 709.447 414.27C709.721 415.006 710.119 415.58 710.639 415.992C711.159 416.396 711.79 416.599 712.534 416.599C713.285 416.599 713.921 416.393 714.441 415.981C714.961 415.562 715.354 414.985 715.622 414.248C715.896 413.504 716.033 412.648 716.033 411.681C716.033 410.72 715.9 409.875 715.632 409.146C715.365 408.416 714.972 407.846 714.452 407.434C713.932 407.023 713.293 406.817 712.534 406.817C711.783 406.817 711.148 407.015 710.628 407.413C710.115 407.81 709.721 408.373 709.447 409.102C709.173 409.832 709.035 410.691 709.035 411.681ZM723.822 420V403.361H728.296V406.264H728.469C728.772 405.232 729.281 404.452 729.996 403.925C730.711 403.39 731.535 403.123 732.466 403.123C732.697 403.123 732.946 403.137 733.214 403.166C733.481 403.195 733.715 403.235 733.918 403.285V407.38C733.701 407.315 733.401 407.257 733.019 407.207C732.636 407.156 732.286 407.131 731.968 407.131C731.289 407.131 730.682 407.279 730.148 407.575C729.621 407.864 729.202 408.268 728.891 408.788C728.588 409.308 728.436 409.908 728.436 410.587V420H723.822ZM743.112 420.325C741.4 420.325 739.927 419.978 738.692 419.285C737.464 418.585 736.518 417.595 735.854 416.317C735.19 415.031 734.857 413.511 734.857 411.756C734.857 410.045 735.19 408.543 735.854 407.25C736.518 405.957 737.454 404.95 738.66 404.228C739.873 403.506 741.296 403.145 742.928 403.145C744.025 403.145 745.047 403.322 745.993 403.675C746.946 404.022 747.777 404.546 748.485 405.246C749.2 405.947 749.756 406.828 750.153 407.889C750.55 408.944 750.749 410.179 750.749 411.594V412.861H736.699V410.002H746.405C746.405 409.337 746.26 408.749 745.972 408.236C745.683 407.723 745.282 407.322 744.769 407.033C744.264 406.737 743.675 406.589 743.003 406.589C742.303 406.589 741.682 406.752 741.14 407.077C740.606 407.395 740.187 407.824 739.884 408.366C739.58 408.9 739.425 409.496 739.418 410.153V412.872C739.418 413.695 739.57 414.407 739.873 415.006C740.183 415.606 740.62 416.068 741.184 416.393C741.747 416.718 742.415 416.88 743.188 416.88C743.7 416.88 744.17 416.808 744.596 416.664C745.022 416.519 745.387 416.302 745.69 416.014C745.993 415.725 746.224 415.371 746.383 414.952L750.651 415.234C750.435 416.259 749.99 417.155 749.319 417.92C748.654 418.678 747.795 419.271 746.741 419.697C745.694 420.116 744.484 420.325 743.112 420.325ZM767.604 408.106L763.379 408.366C763.307 408.005 763.152 407.68 762.914 407.391C762.675 407.095 762.361 406.86 761.971 406.687C761.588 406.506 761.13 406.416 760.595 406.416C759.881 406.416 759.278 406.568 758.786 406.871C758.295 407.167 758.05 407.564 758.05 408.063C758.05 408.46 758.209 408.796 758.526 409.07C758.844 409.344 759.389 409.565 760.162 409.731L763.174 410.337C764.791 410.67 765.997 411.204 766.792 411.941C767.586 412.677 767.983 413.645 767.983 414.844C767.983 415.934 767.662 416.891 767.019 417.714C766.384 418.538 765.51 419.18 764.398 419.643C763.293 420.097 762.018 420.325 760.574 420.325C758.371 420.325 756.616 419.866 755.309 418.949C754.009 418.025 753.247 416.768 753.024 415.18L757.562 414.941C757.7 415.613 758.032 416.126 758.559 416.479C759.086 416.826 759.761 416.999 760.585 416.999C761.393 416.999 762.043 416.844 762.534 416.534C763.033 416.216 763.286 415.808 763.293 415.31C763.286 414.891 763.109 414.548 762.762 414.28C762.415 414.006 761.881 413.797 761.159 413.652L758.277 413.078C756.652 412.753 755.443 412.19 754.648 411.388C753.861 410.587 753.468 409.565 753.468 408.323C753.468 407.254 753.757 406.333 754.334 405.56C754.919 404.788 755.739 404.192 756.793 403.773C757.855 403.354 759.097 403.145 760.52 403.145C762.621 403.145 764.275 403.589 765.481 404.477C766.694 405.365 767.402 406.575 767.604 408.106ZM784.733 408.106L780.508 408.366C780.436 408.005 780.281 407.68 780.043 407.391C779.804 407.095 779.49 406.86 779.1 406.687C778.717 406.506 778.259 406.416 777.724 406.416C777.009 406.416 776.406 406.568 775.915 406.871C775.424 407.167 775.179 407.564 775.179 408.063C775.179 408.46 775.338 408.796 775.655 409.07C775.973 409.344 776.518 409.565 777.291 409.731L780.303 410.337C781.92 410.67 783.126 411.204 783.921 411.941C784.715 412.677 785.112 413.645 785.112 414.844C785.112 415.934 784.791 416.891 784.148 417.714C783.513 418.538 782.639 419.18 781.527 419.643C780.422 420.097 779.147 420.325 777.703 420.325C775.5 420.325 773.745 419.866 772.438 418.949C771.138 418.025 770.376 416.768 770.152 415.18L774.691 414.941C774.829 415.613 775.161 416.126 775.688 416.479C776.215 416.826 776.89 416.999 777.714 416.999C778.522 416.999 779.172 416.844 779.663 416.534C780.162 416.216 780.414 415.808 780.422 415.31C780.414 414.891 780.238 414.548 779.891 414.28C779.544 414.006 779.01 413.797 778.288 413.652L775.406 413.078C773.781 412.753 772.572 412.19 771.777 411.388C770.99 410.587 770.597 409.565 770.597 408.323C770.597 407.254 770.885 406.333 771.463 405.56C772.048 404.788 772.868 404.192 773.922 403.773C774.984 403.354 776.226 403.145 777.649 403.145C779.75 403.145 781.404 403.589 782.61 404.477C783.823 405.365 784.531 406.575 784.733 408.106ZM795.601 420.325C793.889 420.325 792.416 419.978 791.181 419.285C789.953 418.585 789.007 417.595 788.343 416.317C787.679 415.031 787.346 413.511 787.346 411.756C787.346 410.045 787.679 408.543 788.343 407.25C789.007 405.957 789.943 404.95 791.149 404.228C792.362 403.506 793.784 403.145 795.417 403.145C796.514 403.145 797.536 403.322 798.482 403.675C799.435 404.022 800.266 404.546 800.974 405.246C801.689 405.947 802.245 406.828 802.642 407.889C803.039 408.944 803.238 410.179 803.238 411.594V412.861H789.188V410.002H798.894C798.894 409.337 798.749 408.749 798.461 408.236C798.172 407.723 797.771 407.322 797.258 407.033C796.753 406.737 796.164 406.589 795.492 406.589C794.792 406.589 794.171 406.752 793.629 407.077C793.095 407.395 792.676 407.824 792.373 408.366C792.069 408.9 791.914 409.496 791.907 410.153V412.872C791.907 413.695 792.059 414.407 792.362 415.006C792.672 415.606 793.109 416.068 793.673 416.393C794.236 416.718 794.904 416.88 795.677 416.88C796.189 416.88 796.659 416.808 797.085 416.664C797.511 416.519 797.876 416.302 798.179 416.014C798.482 415.725 798.713 415.371 798.872 414.952L803.14 415.234C802.924 416.259 802.479 417.155 801.808 417.92C801.143 418.678 800.284 419.271 799.23 419.697C798.182 420.116 796.973 420.325 795.601 420.325ZM812.38 420.271C811.117 420.271 809.972 419.946 808.946 419.296C807.928 418.639 807.119 417.675 806.52 416.404C805.928 415.125 805.632 413.558 805.632 411.702C805.632 409.796 805.939 408.211 806.552 406.947C807.166 405.676 807.982 404.726 809.001 404.098C810.026 403.462 811.149 403.145 812.369 403.145C813.301 403.145 814.077 403.303 814.698 403.621C815.327 403.932 815.832 404.322 816.215 404.791C816.605 405.253 816.901 405.708 817.103 406.156H817.244V397.815H821.848V420H817.298V417.335H817.103C816.887 417.797 816.58 418.256 816.183 418.711C815.793 419.159 815.283 419.531 814.655 419.827C814.034 420.123 813.276 420.271 812.38 420.271ZM813.843 416.599C814.587 416.599 815.215 416.396 815.728 415.992C816.248 415.58 816.645 415.006 816.919 414.27C817.201 413.533 817.342 412.67 817.342 411.681C817.342 410.691 817.204 409.832 816.93 409.102C816.656 408.373 816.258 407.81 815.738 407.413C815.218 407.015 814.587 406.817 813.843 406.817C813.084 406.817 812.445 407.023 811.925 407.434C811.405 407.846 811.012 408.416 810.745 409.146C810.477 409.875 810.344 410.72 810.344 411.681C810.344 412.648 810.477 413.504 810.745 414.248C811.019 414.985 811.413 415.562 811.925 415.981C812.445 416.393 813.084 416.599 813.843 416.599ZM556.926 449.287H560.913L562.917 451.865L564.888 454.162L568.604 458.82H564.228L561.671 455.678L560.36 453.815L556.926 449.287ZM568.94 445.907C568.94 448.327 568.481 450.385 567.564 452.082C566.654 453.779 565.412 455.075 563.838 455.971C562.271 456.859 560.508 457.303 558.551 457.303C556.58 457.303 554.811 456.856 553.243 455.96C551.676 455.065 550.438 453.768 549.528 452.071C548.618 450.374 548.163 448.32 548.163 445.907C548.163 443.488 548.618 441.43 549.528 439.733C550.438 438.036 551.676 436.743 553.243 435.855C554.811 434.959 556.58 434.512 558.551 434.512C560.508 434.512 562.271 434.959 563.838 435.855C565.412 436.743 566.654 438.036 567.564 439.733C568.481 441.43 568.94 443.488 568.94 445.907ZM564.184 445.907C564.184 444.34 563.95 443.019 563.48 441.943C563.018 440.867 562.364 440.051 561.519 439.495C560.675 438.939 559.685 438.661 558.551 438.661C557.418 438.661 556.428 438.939 555.583 439.495C554.738 440.051 554.081 440.867 553.612 441.943C553.15 443.019 552.918 444.34 552.918 445.907C552.918 447.475 553.15 448.796 553.612 449.872C554.081 450.948 554.738 451.764 555.583 452.32C556.428 452.876 557.418 453.154 558.551 453.154C559.685 453.154 560.675 452.876 561.519 452.32C562.364 451.764 563.018 450.948 563.48 449.872C563.95 448.796 564.184 447.475 564.184 445.907ZM582.998 449.916V440.361H587.612V457H583.182V453.978H583.008C582.633 454.953 582.008 455.736 581.134 456.328C580.268 456.921 579.21 457.217 577.961 457.217C576.848 457.217 575.87 456.964 575.025 456.458C574.18 455.953 573.519 455.234 573.043 454.303C572.573 453.371 572.335 452.255 572.328 450.955V440.361H576.942V450.132C576.95 451.114 577.213 451.891 577.733 452.461C578.253 453.032 578.95 453.317 579.824 453.317C580.38 453.317 580.9 453.191 581.384 452.938C581.867 452.678 582.257 452.295 582.554 451.79C582.857 451.284 583.005 450.659 582.998 449.916ZM596.048 457.314C594.987 457.314 594.041 457.13 593.21 456.762C592.38 456.386 591.722 455.834 591.239 455.104C590.762 454.368 590.524 453.451 590.524 452.353C590.524 451.428 590.693 450.652 591.033 450.024C591.372 449.396 591.834 448.89 592.419 448.507C593.004 448.125 593.669 447.836 594.412 447.641C595.163 447.446 595.951 447.309 596.774 447.229C597.742 447.128 598.522 447.034 599.114 446.947C599.706 446.854 600.136 446.716 600.403 446.536C600.67 446.355 600.804 446.088 600.804 445.734V445.669C600.804 444.983 600.587 444.452 600.154 444.077C599.728 443.701 599.121 443.514 598.334 443.514C597.503 443.514 596.843 443.698 596.351 444.066C595.86 444.427 595.535 444.882 595.377 445.431L591.109 445.084C591.325 444.073 591.751 443.199 592.387 442.463C593.022 441.719 593.842 441.148 594.846 440.751C595.857 440.347 597.027 440.145 598.355 440.145C599.28 440.145 600.164 440.253 601.009 440.47C601.862 440.686 602.616 441.022 603.273 441.477C603.938 441.932 604.461 442.517 604.844 443.232C605.227 443.94 605.418 444.788 605.418 445.778V457H601.042V454.693H600.912C600.645 455.213 600.287 455.671 599.84 456.068C599.392 456.458 598.854 456.765 598.225 456.989C597.597 457.206 596.871 457.314 596.048 457.314ZM597.37 454.129C598.049 454.129 598.648 453.996 599.168 453.729C599.688 453.454 600.096 453.086 600.392 452.624C600.688 452.161 600.836 451.638 600.836 451.053V449.287C600.692 449.381 600.493 449.468 600.24 449.547C599.995 449.619 599.717 449.688 599.406 449.753C599.096 449.811 598.785 449.865 598.475 449.916C598.164 449.959 597.882 449.999 597.63 450.035C597.088 450.114 596.615 450.241 596.211 450.414C595.806 450.587 595.492 450.822 595.268 451.118C595.044 451.407 594.932 451.768 594.932 452.201C594.932 452.829 595.16 453.31 595.615 453.642C596.077 453.967 596.662 454.129 597.37 454.129ZM613.613 447.381V457H608.998V440.361H613.396V443.297H613.591C613.96 442.329 614.577 441.564 615.444 441C616.31 440.43 617.361 440.145 618.596 440.145C619.752 440.145 620.759 440.397 621.618 440.903C622.478 441.408 623.146 442.131 623.622 443.069C624.099 444.001 624.337 445.113 624.337 446.406V457H619.723V447.229C619.73 446.211 619.47 445.416 618.943 444.846C618.415 444.268 617.69 443.979 616.765 443.979C616.144 443.979 615.595 444.113 615.119 444.38C614.649 444.647 614.281 445.037 614.014 445.55C613.754 446.056 613.62 446.666 613.613 447.381ZM636.824 440.361V443.828H626.804V440.361H636.824ZM629.079 436.375H633.694V451.887C633.694 452.313 633.759 452.645 633.889 452.884C634.019 453.115 634.199 453.277 634.43 453.371C634.669 453.465 634.943 453.512 635.254 453.512C635.47 453.512 635.687 453.494 635.904 453.458C636.12 453.414 636.286 453.382 636.402 453.36L637.128 456.794C636.897 456.866 636.572 456.949 636.153 457.043C635.734 457.144 635.225 457.206 634.625 457.227C633.513 457.271 632.538 457.123 631.701 456.783C630.87 456.444 630.224 455.917 629.762 455.202C629.299 454.487 629.072 453.584 629.079 452.494V436.375ZM639.83 457V440.361H644.445V457H639.83ZM642.149 438.216C641.463 438.216 640.874 437.989 640.383 437.534C639.899 437.072 639.657 436.519 639.657 435.877C639.657 435.241 639.899 434.696 640.383 434.241C640.874 433.779 641.463 433.548 642.149 433.548C642.835 433.548 643.42 433.779 643.904 434.241C644.395 434.696 644.64 435.241 644.64 435.877C644.64 436.519 644.395 437.072 643.904 437.534C643.42 437.989 642.835 438.216 642.149 438.216ZM661.986 445.106L657.761 445.366C657.689 445.005 657.534 444.68 657.295 444.391C657.057 444.095 656.743 443.86 656.353 443.687C655.97 443.506 655.511 443.416 654.977 443.416C654.262 443.416 653.659 443.568 653.168 443.871C652.677 444.167 652.431 444.564 652.431 445.063C652.431 445.46 652.59 445.796 652.908 446.07C653.226 446.344 653.771 446.565 654.544 446.731L657.555 447.337C659.173 447.67 660.379 448.204 661.173 448.941C661.968 449.677 662.365 450.645 662.365 451.844C662.365 452.934 662.043 453.891 661.401 454.714C660.765 455.538 659.891 456.18 658.779 456.643C657.674 457.097 656.4 457.325 654.955 457.325C652.753 457.325 650.998 456.866 649.691 455.949C648.391 455.025 647.629 453.768 647.405 452.18L651.944 451.941C652.081 452.613 652.413 453.126 652.941 453.479C653.468 453.826 654.143 453.999 654.966 453.999C655.775 453.999 656.425 453.844 656.916 453.534C657.414 453.216 657.667 452.808 657.674 452.31C657.667 451.891 657.49 451.548 657.144 451.28C656.797 451.006 656.263 450.797 655.54 450.652L652.659 450.078C651.034 449.753 649.824 449.19 649.03 448.388C648.243 447.587 647.849 446.565 647.849 445.323C647.849 444.254 648.138 443.333 648.716 442.56C649.301 441.788 650.12 441.192 651.175 440.773C652.236 440.354 653.479 440.145 654.901 440.145C657.003 440.145 658.656 440.589 659.863 441.477C661.076 442.365 661.783 443.575 661.986 445.106ZM672.853 457.325C671.142 457.325 669.669 456.978 668.434 456.285C667.206 455.585 666.26 454.595 665.596 453.317C664.931 452.031 664.599 450.511 664.599 448.756C664.599 447.045 664.931 445.543 665.596 444.25C666.26 442.957 667.195 441.95 668.401 441.228C669.614 440.506 671.037 440.145 672.669 440.145C673.767 440.145 674.789 440.322 675.735 440.675C676.688 441.022 677.519 441.546 678.226 442.246C678.941 442.947 679.497 443.828 679.895 444.889C680.292 445.944 680.49 447.179 680.49 448.594V449.861H666.441V447.002H676.147C676.147 446.337 676.002 445.749 675.713 445.236C675.424 444.723 675.024 444.322 674.511 444.033C674.005 443.737 673.417 443.589 672.745 443.589C672.045 443.589 671.424 443.752 670.882 444.077C670.347 444.395 669.929 444.824 669.625 445.366C669.322 445.9 669.167 446.496 669.16 447.153V449.872C669.16 450.695 669.311 451.407 669.614 452.006C669.925 452.606 670.362 453.068 670.925 453.393C671.489 453.718 672.157 453.88 672.929 453.88C673.442 453.88 673.911 453.808 674.337 453.664C674.764 453.519 675.128 453.302 675.432 453.014C675.735 452.725 675.966 452.371 676.125 451.952L680.393 452.234C680.176 453.259 679.732 454.155 679.06 454.92C678.396 455.678 677.537 456.271 676.482 456.697C675.435 457.116 674.226 457.325 672.853 457.325ZM689.633 457.271C688.369 457.271 687.225 456.946 686.199 456.296C685.181 455.639 684.372 454.675 683.773 453.404C683.18 452.125 682.884 450.558 682.884 448.702C682.884 446.796 683.191 445.211 683.805 443.947C684.419 442.676 685.235 441.726 686.253 441.098C687.279 440.462 688.402 440.145 689.622 440.145C690.554 440.145 691.33 440.303 691.951 440.621C692.579 440.932 693.085 441.322 693.468 441.791C693.858 442.253 694.154 442.708 694.356 443.156H694.497V434.815H699.101V457H694.551V454.335H694.356C694.139 454.797 693.832 455.256 693.435 455.711C693.045 456.159 692.536 456.531 691.908 456.827C691.287 457.123 690.528 457.271 689.633 457.271ZM691.095 453.599C691.839 453.599 692.467 453.396 692.98 452.992C693.5 452.58 693.897 452.006 694.172 451.27C694.453 450.533 694.594 449.67 694.594 448.681C694.594 447.691 694.457 446.832 694.183 446.102C693.908 445.373 693.511 444.81 692.991 444.413C692.471 444.015 691.839 443.817 691.095 443.817C690.337 443.817 689.698 444.023 689.178 444.434C688.658 444.846 688.264 445.416 687.997 446.146C687.73 446.875 687.596 447.72 687.596 448.681C687.596 449.648 687.73 450.504 687.997 451.248C688.272 451.985 688.665 452.562 689.178 452.981C689.698 453.393 690.337 453.599 691.095 453.599ZM723.799 445.106L719.574 445.366C719.502 445.005 719.347 444.68 719.108 444.391C718.87 444.095 718.556 443.86 718.166 443.687C717.783 443.506 717.325 443.416 716.79 443.416C716.075 443.416 715.472 443.568 714.981 443.871C714.49 444.167 714.244 444.564 714.244 445.063C714.244 445.46 714.403 445.796 714.721 446.07C715.039 446.344 715.584 446.565 716.357 446.731L719.368 447.337C720.986 447.67 722.192 448.204 722.986 448.941C723.781 449.677 724.178 450.645 724.178 451.844C724.178 452.934 723.857 453.891 723.214 454.714C722.578 455.538 721.704 456.18 720.592 456.643C719.487 457.097 718.213 457.325 716.768 457.325C714.566 457.325 712.811 456.866 711.504 455.949C710.204 455.025 709.442 453.768 709.218 452.18L713.757 451.941C713.894 452.613 714.226 453.126 714.754 453.479C715.281 453.826 715.956 453.999 716.779 453.999C717.588 453.999 718.238 453.844 718.729 453.534C719.227 453.216 719.48 452.808 719.487 452.31C719.48 451.891 719.303 451.548 718.957 451.28C718.61 451.006 718.076 450.797 717.353 450.652L714.472 450.078C712.847 449.753 711.637 449.19 710.843 448.388C710.056 447.587 709.662 446.565 709.662 445.323C709.662 444.254 709.951 443.333 710.529 442.56C711.114 441.788 711.934 441.192 712.988 440.773C714.049 440.354 715.292 440.145 716.714 440.145C718.816 440.145 720.47 440.589 721.676 441.477C722.889 442.365 723.597 443.575 723.799 445.106ZM727.084 463.24V440.361H731.633V443.156H731.839C732.041 442.708 732.334 442.253 732.717 441.791C733.107 441.322 733.612 440.932 734.233 440.621C734.861 440.303 735.641 440.145 736.573 440.145C737.786 440.145 738.906 440.462 739.931 441.098C740.957 441.726 741.776 442.676 742.39 443.947C743.004 445.211 743.311 446.796 743.311 448.702C743.311 450.558 743.011 452.125 742.412 453.404C741.82 454.675 741.011 455.639 739.985 456.296C738.967 456.946 737.826 457.271 736.562 457.271C735.667 457.271 734.905 457.123 734.277 456.827C733.655 456.531 733.146 456.159 732.749 455.711C732.352 455.256 732.049 454.797 731.839 454.335H731.698V463.24H727.084ZM731.601 448.681C731.601 449.67 731.738 450.533 732.013 451.27C732.287 452.006 732.684 452.58 733.204 452.992C733.724 453.396 734.356 453.599 735.1 453.599C735.851 453.599 736.486 453.393 737.006 452.981C737.526 452.562 737.92 451.985 738.187 451.248C738.461 450.504 738.599 449.648 738.599 448.681C738.599 447.72 738.465 446.875 738.198 446.146C737.931 445.416 737.537 444.846 737.017 444.434C736.497 444.023 735.858 443.817 735.1 443.817C734.349 443.817 733.713 444.015 733.193 444.413C732.681 444.81 732.287 445.373 732.013 446.102C731.738 446.832 731.601 447.691 731.601 448.681ZM751.132 457.314C750.07 457.314 749.124 457.13 748.294 456.762C747.463 456.386 746.806 455.834 746.322 455.104C745.846 454.368 745.607 453.451 745.607 452.353C745.607 451.428 745.777 450.652 746.116 450.024C746.456 449.396 746.918 448.89 747.503 448.507C748.088 448.125 748.752 447.836 749.496 447.641C750.247 447.446 751.034 447.309 751.858 447.229C752.825 447.128 753.605 447.034 754.198 446.947C754.79 446.854 755.219 446.716 755.487 446.536C755.754 446.355 755.887 446.088 755.887 445.734V445.669C755.887 444.983 755.671 444.452 755.237 444.077C754.811 443.701 754.205 443.514 753.418 443.514C752.587 443.514 751.926 443.698 751.435 444.066C750.944 444.427 750.619 444.882 750.46 445.431L746.192 445.084C746.409 444.073 746.835 443.199 747.471 442.463C748.106 441.719 748.926 441.148 749.929 440.751C750.941 440.347 752.11 440.145 753.439 440.145C754.364 440.145 755.248 440.253 756.093 440.47C756.945 440.686 757.7 441.022 758.357 441.477C759.022 441.932 759.545 442.517 759.928 443.232C760.311 443.94 760.502 444.788 760.502 445.778V457H756.126V454.693H755.996C755.729 455.213 755.371 455.671 754.923 456.068C754.476 456.458 753.938 456.765 753.309 456.989C752.681 457.206 751.955 457.314 751.132 457.314ZM752.453 454.129C753.132 454.129 753.732 453.996 754.252 453.729C754.772 453.454 755.18 453.086 755.476 452.624C755.772 452.161 755.92 451.638 755.92 451.053V449.287C755.775 449.381 755.577 449.468 755.324 449.547C755.079 449.619 754.801 449.688 754.49 449.753C754.179 449.811 753.869 449.865 753.558 449.916C753.248 449.959 752.966 449.999 752.713 450.035C752.172 450.114 751.699 450.241 751.294 450.414C750.89 450.587 750.576 450.822 750.352 451.118C750.128 451.407 750.016 451.768 750.016 452.201C750.016 452.829 750.244 453.31 750.699 453.642C751.161 453.967 751.746 454.129 752.453 454.129ZM771.6 457.325C769.896 457.325 768.43 456.964 767.202 456.242C765.981 455.512 765.043 454.501 764.386 453.209C763.736 451.916 763.411 450.428 763.411 448.746C763.411 447.041 763.739 445.546 764.396 444.261C765.061 442.968 766.003 441.961 767.224 441.239C768.444 440.509 769.896 440.145 771.578 440.145C773.03 440.145 774.301 440.408 775.391 440.935C776.482 441.463 777.345 442.203 777.98 443.156C778.616 444.109 778.966 445.229 779.031 446.514H774.676C774.554 445.684 774.229 445.016 773.701 444.51C773.182 443.997 772.499 443.741 771.654 443.741C770.939 443.741 770.314 443.936 769.78 444.326C769.253 444.709 768.841 445.268 768.545 446.005C768.249 446.742 768.101 447.633 768.101 448.681C768.101 449.742 768.245 450.645 768.534 451.389C768.83 452.133 769.246 452.699 769.78 453.089C770.314 453.479 770.939 453.674 771.654 453.674C772.181 453.674 772.654 453.566 773.073 453.349C773.499 453.133 773.85 452.819 774.124 452.407C774.406 451.988 774.59 451.486 774.676 450.901H779.031C778.959 452.172 778.612 453.292 777.991 454.259C777.377 455.22 776.529 455.971 775.446 456.513C774.362 457.054 773.08 457.325 771.6 457.325ZM789.568 457.325C787.857 457.325 786.384 456.978 785.149 456.285C783.921 455.585 782.975 454.595 782.311 453.317C781.646 452.031 781.314 450.511 781.314 448.756C781.314 447.045 781.646 445.543 782.311 444.25C782.975 442.957 783.91 441.95 785.116 441.228C786.329 440.506 787.752 440.145 789.384 440.145C790.482 440.145 791.504 440.322 792.45 440.675C793.403 441.022 794.234 441.546 794.941 442.246C795.656 442.947 796.212 443.828 796.61 444.889C797.007 445.944 797.205 447.179 797.205 448.594V449.861H783.156V447.002H792.861C792.861 446.337 792.717 445.749 792.428 445.236C792.139 444.723 791.739 444.322 791.226 444.033C790.72 443.737 790.132 443.589 789.46 443.589C788.76 443.589 788.139 443.752 787.597 444.077C787.062 444.395 786.644 444.824 786.34 445.366C786.037 445.9 785.882 446.496 785.875 447.153V449.872C785.875 450.695 786.026 451.407 786.329 452.006C786.64 452.606 787.077 453.068 787.64 453.393C788.203 453.718 788.872 453.88 789.644 453.88C790.157 453.88 790.626 453.808 791.052 453.664C791.479 453.519 791.843 453.302 792.147 453.014C792.45 452.725 792.681 452.371 792.84 451.952L797.108 452.234C796.891 453.259 796.447 454.155 795.775 454.92C795.111 455.678 794.252 456.271 793.197 456.697C792.15 457.116 790.941 457.325 789.568 457.325Z" fill="white"/>
</svg>
